<?xml version="1.0" encoding="utf-8"?>
<svg version="1.1" id="Layer_1" xmlns="http://www.w3.org/2000/svg" xmlns:xlink="http://www.w3.org/1999/xlink" x="0px" y="0px"
	 viewBox="0 0 1446.621 2035.289" enable-background="new 0 0 1446.621 2035.289" xml:space="preserve">
<g>
	<path fill="#FFFF66" stroke="#FFFF66" stroke-width="0.5" d="M948.701,73.288c37.2-11.97,76.96-16,115.79-11.45
		c49.13,5.81,96.33,24.71,137.12,52.5c6.71,4.56,13.07,9.6,19.4,14.68c1.59,1.34,3.55,2.1,5.42,2.98
		c-10.4-4.23-21.09-7.91-32.3-9.17c-35.23-4.46-70.83,1.86-104.84,10.92c-24.99,7.26-50.07,15.06-73.05,27.5
		c-7.26-8.09-10.25-18.86-12.13-29.31c-3.52,11.32-6.45,23.8-15.66,32.02c-5.23,5.14-12.17,7.73-18.78,10.54
		c4.58,1.43,9.18,2.96,13.28,5.52c-66.24,40.68-129.08,86.95-197.73,123.68c-29.2,15.97-59.64,30.03-91.7,39.22
		c-42.5,12.75-86.83,17.85-130.98,20.48c-43.37,3.14-87.52,4.6-129.33,17.7c-9.6-7.81-13.07-20.41-15.14-32.1
		c-2.17,6.37-3.66,12.98-6.62,19.06c-3.01,7.05-8.12,13.19-14.6,17.3c-4.12,2.66-8.82,4.18-13.3,6.09c3.59,1.26,7.17,2.6,10.56,4.32
		c-32.54,15.25-65.01,31.84-92.56,55.22c-6.36,5.58-12.63,11.47-17.21,18.66c-7.31-1.03-14.6,0.76-21.79,1.89
		c-6.07,1.13-12.25,2.07-18.01,4.38c-13.53,5.59-25.69,13.95-37.15,22.96c-3.79,2.91-7.25,6.24-11.28,8.83
		c-2.61-3.39-6.06-6-9.71-8.19c-0.55-13.25,1.21-26.55,5.29-39.18c0.98-3.08,2.24-6.06,3.4-9.08c10.38-25.33,28.5-46.77,49.02-64.57
		c23.24-20.14,49.83-36.01,77.33-49.57c16.98-8.11,35.03-13.59,53.15-18.48c48.93-12.45,99.15-18.51,149.06-25.58
		c44.36-6.31,88.95-12.52,132.05-25.14c39.4-11.52,75.03-33.25,106.87-58.78c30.64-24.16,58.52-51.53,87.97-77.07
		c15.72-13.5,31.96-26.53,49.68-37.32C915.281,85.348,931.801,78.558,948.701,73.288z"/>
	<path fill="#99FFFF" stroke="#99FFFF" stroke-width="0.5" d="M1336.801,145.758c10.27-12.04,18.84-25.47,26.16-39.48
		c5.37,27.22,7.1,55.08,5.88,82.77c-1.92,16.62-4.15,33.39-10.18,49.1c-6.6,18.13-17.97,35.06-34.32,45.7
		c-16.33,10.85-36.33,14.77-55.7,14.48c-46.04-0.13-92.73,5.23-135.89,21.98c-27.38,10.41-52.7,25.51-76.54,42.4
		c-22.82,16.18-45.13,33.15-69.38,47.18c-4.48-1.97-7.46-6.03-10.04-10.01c-4.38-6.93-6.19-15.05-7.86-22.97
		c-3.56,9.29-5.7,19.43-12.13,27.35c-5.53,7.32-14.09,11.22-22.43,14.39c5.47,1.84,11.02,3.74,15.72,7.19
		c-38.24,11.89-78.56,17.24-118.57,14.88c-29.31-1.36-58.47-6.78-87.87-5.18c-19.17,0.46-38.14,4.4-56.33,10.3
		c-33.36,11.34-65.17,27.52-93.52,48.48c-15.32,11.62-30.01,24.34-42.19,39.28c-17.52,9.6-34.77,19.68-52.27,29.32
		c-10.83,6.08-21.75,12.09-33.31,16.68c-7.4,2.77-15.69,5.54-23.49,2.67c-11.78-4.2-21.82-11.94-31.77-19.31
		c-12.79-10.14-25.47-20.41-38.09-30.77c17.11-30.89,42.8-56.39,72.01-75.93c28.59-19.31,60.56-33.18,93.36-43.62
		c46-14.57,93.89-21.68,141.55-28.35c60.87-8.96,122.8-15.84,180.88-37.27c36.26-13.55,68.71-35.32,99.09-58.98
		c23.03-17.69,45.22-36.66,70.07-51.84c11.77-7.06,23.99-13.47,36.96-18.07c21.42-7.62,44.25-11.11,66.98-10.33
		c13.13,0.29,26.16,2.04,39.11,4.17c26.84,4.21,54.79,2.74,80.6-6.09C1286.371,194.818,1315.031,172.738,1336.801,145.758z"/>
	<path fill="#99FF66" stroke="#99FF66" stroke-width="0.5" d="M1089.291,133.748c34.01-9.06,69.61-15.38,104.84-10.92
		c11.21,1.26,21.9,4.94,32.3,9.17c20.57,9.71,42.26,18.48,65.28,19.43c15.21,1.23,30.63-0.81,45.09-5.67
		c-21.77,26.98-50.43,49.06-83.51,60.12c-25.81,8.83-53.76,10.3-80.6,6.09c-12.95-2.13-25.98-3.88-39.11-4.17
		c-22.73-0.78-45.56,2.71-66.98,10.33c-12.97,4.6-25.19,11.01-36.96,18.07c-24.85,15.18-47.04,34.15-70.07,51.84
		c-30.38,23.66-62.83,45.43-99.09,58.98c-58.08,21.43-120.01,28.31-180.88,37.27c-47.66,6.67-95.55,13.78-141.55,28.35
		c-32.8,10.44-64.77,24.31-93.36,43.62c-29.21,19.54-54.9,45.04-72.01,75.93c-15.34-12.77-30.92-25.27-47.06-37.02
		c-3.35-2.32-6.75-4.6-9.91-7.17c0.16-4.53,0.68-9.18-0.55-13.62c-0.79-2.72-2.6-5.59-5.6-6.12c-5.73-1.04-11.09,1.75-16.35,3.56
		c-3.14,1.43-6.01-1.23-8.87-2.17c4.58-7.19,10.85-13.08,17.21-18.66c27.55-23.38,60.02-39.97,92.56-55.22
		c8.2,3.59,14.61,10.57,18.07,18.76c2.87,6.23,4.23,12.99,5.93,19.59c1.85-10.34,4.17-21.17,10.93-29.54
		c6.07-6.91,14.67-11.1,23.57-13.02c-6.69-3.05-13.72-5.63-19.4-10.46c41.81-13.1,85.96-14.56,129.33-17.7
		c44.15-2.63,88.48-7.73,130.98-20.48c32.06-9.19,62.5-23.25,91.7-39.22c68.65-36.73,131.49-83,197.73-123.68
		c4.16,2.59,8.19,5.62,10.99,9.73c5.78,8.1,8.01,17.97,10.24,27.49c1.96-10.78,4.28-22.28,11.78-30.72
		c5.82-6.48,14.18-9.52,22.16-12.35c-7.75-3.41-16.01-6.51-21.88-12.92C1039.221,148.808,1064.301,141.008,1089.291,133.748z"/>
	<path fill="#CCFF66" stroke="#CCFF66" stroke-width="0.5" d="M988.451,163.958c9.21-8.22,12.14-20.7,15.66-32.02
		c1.88,10.45,4.87,21.22,12.13,29.31c5.87,6.41,14.13,9.51,21.88,12.92c-7.98,2.83-16.34,5.87-22.16,12.35
		c-7.5,8.44-9.82,19.94-11.78,30.72c-2.23-9.52-4.46-19.39-10.24-27.49c-2.8-4.11-6.83-7.14-10.99-9.73
		c-4.1-2.56-8.7-4.09-13.28-5.52C976.281,171.688,983.221,169.098,988.451,163.958z"/>
	<path fill="#6699FF" stroke="#6699FF" stroke-width="0.5" d="M1368.841,189.048c3.22,25.06,2.18,50.44-0.21,75.52
		c-2.49,11.31-4.15,22.81-7.67,33.88c-8.63,29.37-25.67,57.34-51.77,74.22c-23.69,15.61-52.57,21.07-80.56,21.04
		c-15.69-0.31-31.48,1.59-46.41,6.51c-9.59-7.81-13.25-20.44-15.22-32.16c-3.56,11.03-6.54,22.98-15.07,31.4
		c-5.25,5.59-12.64,8.04-19.42,11.17c5.37,1.63,10.67,3.67,15.34,6.85c-13.98,9.75-26.35,21.54-38.57,33.37
		c-9.88,9.23-19.92,18.66-32.08,24.84c-6.67,3.46-14.03,5.48-21.48,6.27c-33.55,3.9-67.35,4.75-101.04,6.66
		c-19.06,0.84-38.09,2.48-56.97,5.25c-20.39,3.09-40.67,8.02-59.42,16.79c-14.73,6.78-27.07,17.72-41.92,24.29
		c-9.63,4.44-19.91,7.34-30.38,8.93c-9.12-13.62-20.74-25.48-33.86-35.27c-10.07-7.44-21.86-12.57-34.17-14.87
		c-19.27-4.09-39.31-1.84-58.27,2.81c-31.06,7.79-59.93,22.12-88.08,37.05c12.18-14.94,26.87-27.66,42.19-39.28
		c28.35-20.96,60.16-37.14,93.52-48.48c18.19-5.9,37.16-9.84,56.33-10.3c29.4-1.6,58.56,3.82,87.87,5.18
		c40.01,2.36,80.33-2.99,118.57-14.88c12.18,7.57,15.57,22.42,18.98,35.32c1.64-9.97,3.84-20.33,10.02-28.57
		c6-7.66,15.34-11.67,24.51-14.11c-5.8-2.4-12.03-4.3-16.77-8.59c24.25-14.03,46.56-31,69.38-47.18
		c23.84-16.89,49.16-31.99,76.54-42.4c43.16-16.75,89.85-22.11,135.89-21.98c19.37,0.29,39.37-3.63,55.7-14.48
		c16.35-10.64,27.72-27.57,34.32-45.7C1364.691,222.438,1366.921,205.668,1368.841,189.048z"/>
	<path fill="#9966FF" stroke="#9966FF" stroke-width="0.5" d="M1360.961,298.448c3.52-11.07,5.18-22.57,7.67-33.88
		c0.65,22.54-0.9,45.13-3.56,67.52c-3.19,25.14-8.31,50.18-17.32,73.92c-6.69,17.38-15.6,34.24-28.5,47.84
		c-12.91,13.91-30.69,23.3-49.61,25.42c-20.61,2.53-41.62,5.92-60.25,15.59c-17.88,8.5-30.75,24.17-47.35,34.58
		c-18.65,11.76-40.58,17.3-62.34,19.46c-26.23,2.61-52.33-2.49-77.98-7.42c-14.87-2.71-29.92-5.28-45.08-4.65
		c-17.77,0.42-35.34,5.62-50.59,14.72c-10.72,5.72-20.07,13.56-29.39,21.26c-14.67,11.55-31.58,19.73-48.16,28.13
		c-19.03,9.06-38.31,17.67-57.94,25.34c-0.51,0.17-1.51,0.5-2.02,0.67c0.94-29.08-6.04-58.86-22.55-83.07
		c10.47-1.59,20.75-4.49,30.38-8.93c14.85-6.57,27.19-17.51,41.92-24.29c18.75-8.77,39.03-13.7,59.42-16.79
		c18.88-2.77,37.91-4.41,56.97-5.25c33.69-1.91,67.49-2.76,101.04-6.66c7.45-0.79,14.81-2.81,21.48-6.27
		c12.16-6.18,22.2-15.61,32.08-24.84c12.22-11.83,24.59-23.62,38.57-33.37c7.28,4.76,12.26,12.32,14.94,20.5
		c1.77,4.94,2.78,10.11,4.3,15.13c1.53-9.27,3.56-18.79,8.72-26.79c5.89-8.61,15.81-13.55,25.77-15.78
		c-6.64-3.06-13.79-5.4-19.36-10.32c14.93-4.92,30.72-6.82,46.41-6.51c27.99,0.03,56.87-5.43,80.56-21.04
		C1335.291,355.788,1352.331,327.818,1360.961,298.448z"/>
	<path fill="#CCFF66" stroke="#CCFF66" stroke-width="0.5" d="M411.451,368.058c2.96-6.08,4.45-12.69,6.62-19.06
		c2.07,11.69,5.54,24.29,15.14,32.1c5.68,4.83,12.71,7.41,19.4,10.46c-8.9,1.92-17.5,6.11-23.57,13.02
		c-6.76,8.37-9.08,19.2-10.93,29.54c-1.7-6.6-3.06-13.36-5.93-19.59c-3.46-8.19-9.87-15.17-18.07-18.76
		c-3.39-1.72-6.97-3.06-10.56-4.32c4.48-1.91,9.18-3.43,13.3-6.09C403.331,381.248,408.441,375.108,411.451,368.058z"/>
	<path fill="#6666FF" stroke="#6666FF" stroke-width="0.5" d="M1151.931,399.458c8.53-8.42,11.51-20.37,15.07-31.4
		c1.97,11.72,5.63,24.35,15.22,32.16c5.57,4.92,12.72,7.26,19.36,10.32c-9.96,2.23-19.88,7.17-25.77,15.78
		c-5.16,8-7.19,17.52-8.72,26.79c-1.52-5.02-2.53-10.19-4.3-15.13c-2.68-8.18-7.66-15.74-14.94-20.5
		c-4.67-3.18-9.97-5.22-15.34-6.85C1139.291,407.498,1146.681,405.048,1151.931,399.458z"/>
	<path fill="#809980" stroke="#809980" stroke-width="0.5" d="M42.691,370.278c3.69,1.39,7.34,3.1,10.51,5.45
		c2,2.27,4.36,4.18,6.88,5.84c5.13,4.37,10.3,9.12,13.04,15.42c-0.48,0.19-1.43,0.57-1.91,0.75c-0.86-0.67-1.67-1.41-2.42-2.21
		c-6.94-9.59-15.57-18.14-25.44-24.67l0.15,2.35C43.201,372.238,42.931,371.258,42.691,370.278z"/>
	<path fill="#003300" stroke="#003300" stroke-width="0.5" d="M43.351,370.858c9.87,6.53,18.5,15.08,25.44,24.67
		c-8.98-3.55-17.83-8.79-23.07-17.16l-0.52-0.81c-0.03-0.05-0.08-0.15-0.11-0.2c-0.24-0.61-0.71-1.83-0.95-2.44l-0.08-0.2l-0.07-0.2
		l-0.49-1.31L43.351,370.858z"/>
	<path opacity="0.67" fill="#445B3E" stroke="#445B3E" stroke-width="0.5" enable-background="new    " d="M43.991,374.518l0.07,0.2
		l0.08,0.2C44.101,374.818,44.031,374.618,43.991,374.518z"/>
	<path opacity="0.82" fill="#2D502A" stroke="#2D502A" stroke-width="0.5" enable-background="new    " d="M53.201,375.728
		c3.32,1.09,6.15,3.23,8.8,5.46c-0.48,0.09-1.44,0.28-1.92,0.38C57.561,379.908,55.201,377.998,53.201,375.728z"/>
	<path opacity="0.29" fill="#393E37" stroke="#393E37" stroke-width="0.5" enable-background="new    " d="M45.091,377.358
		c0.03,0.05,0.08,0.15,0.11,0.2C45.171,377.508,45.121,377.408,45.091,377.358z"/>
	<path fill="#66CCFF" stroke="#66CCFF" stroke-width="0.5" d="M956.801,404.258c6.43-7.92,8.57-18.06,12.13-27.35
		c1.67,7.92,3.48,16.04,7.86,22.97c2.58,3.98,5.56,8.04,10.04,10.01c4.74,4.29,10.97,6.19,16.77,8.59
		c-9.17,2.44-18.51,6.45-24.51,14.11c-6.18,8.24-8.38,18.6-10.02,28.57c-3.41-12.9-6.8-27.75-18.98-35.32
		c-4.7-3.45-10.25-5.35-15.72-7.19C942.711,415.478,951.271,411.578,956.801,404.258z"/>
	<path fill="#669933" stroke="#669933" stroke-width="0.5" d="M45.721,378.368c5.24,8.37,14.09,13.61,23.07,17.16
		c0.75,0.8,1.56,1.54,2.42,2.21c6.87,5.3,14.11,10.32,19.8,16.94c1.85,1.99,3,4.48,3.9,7.01c-9.23-2.54-17.82-6.96-25.4-12.79
		C58.871,401.218,50.501,390.608,45.721,378.368z"/>
	<path fill="#124210" stroke="#124210" stroke-width="0.5" d="M60.081,381.568c0.48-0.1,1.44-0.29,1.92-0.38
		c0.34,0.25,1.03,0.76,1.37,1.02c2.46,2.39,4.88,4.81,7.32,7.22c0.7,0.84,1.62,1.64,1.82,2.78c0.14,1.07,0.71,1.81,1.73,2.22
		c0.36,0.42,1.08,1.27,1.44,1.7c0.25,0.96,0.8,1.72,1.65,2.27l0.55,1.26c-1.77-0.51-3.63-1.11-4.76-2.67
		C70.381,390.688,65.211,385.938,60.081,381.568z"/>
	<path opacity="0.18" fill="#20231E" stroke="#20231E" stroke-width="0.5" enable-background="new    " d="M63.371,382.208
		c3.21,1.35,5.87,4.08,7.32,7.22C68.251,387.018,65.831,384.598,63.371,382.208z"/>
	<path opacity="0.68" fill="#304B2B" stroke="#304B2B" stroke-width="0.5" enable-background="new    " d="M72.511,392.208
		c1.68-0.18,2.26,0.56,1.73,2.22C73.221,394.018,72.651,393.278,72.511,392.208z"/>
	<path opacity="0.28" fill="#293027" stroke="#293027" stroke-width="0.5" enable-background="new    " d="M75.681,396.128
		c1.78-0.22,2.33,0.54,1.65,2.27C76.481,397.848,75.931,397.088,75.681,396.128z"/>
	<path fill="#B3CC99" stroke="#B3CC99" stroke-width="0.5" d="M71.211,397.738c0.48-0.18,1.43-0.56,1.91-0.75
		c1.13,1.56,2.99,2.16,4.76,2.67l0.26,0.08l0.12,0.12c2.83,3.17,6.72,5.05,9.89,7.83c4.62,3.92,8.41,9.06,9.71,15.08
		c-0.62-0.12-1.85-0.36-2.46-0.47c-0.12-0.15-0.37-0.46-0.49-0.61c-0.9-2.53-2.05-5.02-3.9-7.01
		C85.321,408.058,78.081,403.038,71.211,397.738z"/>
	<path fill="#669933" stroke="#669933" stroke-width="0.5" d="M78.261,399.858c6.11,1.67,13.13,4.55,16.2,10.37
		c0.13,1.09,0.72,1.81,1.79,2.17c2.95,2.53,3.95,6.76,6.11,9.96c-1.02,0.62-2.17,1.04-3.38,1.02c-0.28-0.16-0.84-0.46-1.12-0.61
		c-1.3-6.02-5.09-11.16-9.71-15.08C84.981,404.908,81.091,403.028,78.261,399.858z"/>
	<path fill="#003300" stroke="#003300" stroke-width="0.5" d="M69.511,408.898c7.58,5.83,16.17,10.25,25.4,12.79
		c0.12,0.15,0.37,0.46,0.49,0.61c2.86,3.51,7.06,5.56,10.4,8.58c4.63,3.75,9.86,7.96,10.49,14.35c-9.02-1.82-17.85-4.58-25.97-8.98
		l-1.08-0.56c-0.05-0.03-0.17-0.1-0.23-0.13c-0.52-0.46-1.56-1.38-2.08-1.83c-0.4-1.13-1.15-1.68-2.25-1.67h-0.78
		c-0.24-0.26-0.71-0.79-0.94-1.05c-1.96-2.28-4.11-4.4-6.43-6.31c-0.21-0.19-0.64-0.56-0.85-0.74v-0.87c0-1.09-0.53-1.87-1.6-2.34
		l-0.87-1.06c-0.03-0.07-0.09-0.2-0.12-0.27l-0.97-1.63c-0.04-0.11-0.12-0.33-0.16-0.44l-0.13-1.5c-0.29-0.44-0.86-1.31-1.15-1.75
		l0.02-1.15c-0.22-0.48-0.66-1.42-0.88-1.89C69.741,410.518,69.591,409.438,69.511,408.898z"/>
	<path opacity="0.69" fill="#5E7943" stroke="#5E7943" stroke-width="0.5" enable-background="new    " d="M94.461,410.228
		c1.65-0.21,2.24,0.52,1.79,2.17C95.181,412.038,94.591,411.318,94.461,410.228z"/>
	<path opacity="0.5" fill="#3E4E39" stroke="#3E4E39" stroke-width="0.5" enable-background="new    " d="M69.821,411.058
		c0.22,0.47,0.66,1.41,0.88,1.89l-0.89-0.11l-0.46-0.96L69.821,411.058z"/>
	<path opacity="0.44" fill="#374432" stroke="#374432" stroke-width="0.5" enable-background="new    " d="M70.681,414.098
		c0.29,0.44,0.86,1.31,1.15,1.75l-0.92-0.02l-0.58-0.89L70.681,414.098z"/>
	<path opacity="0.38" fill="#424A3F" stroke="#424A3F" stroke-width="0.5" enable-background="new    " d="M71.961,417.348
		c0.04,0.11,0.12,0.33,0.16,0.44C72.081,417.678,72.001,417.458,71.961,417.348z"/>
	<path opacity="0.42" fill="#454E41" stroke="#454E41" stroke-width="0.5" enable-background="new    " d="M73.091,419.418
		c0.03,0.07,0.09,0.2,0.12,0.27C73.181,419.618,73.121,419.488,73.091,419.418z"/>
	<path opacity="0.65" fill="#2B4526" stroke="#2B4526" stroke-width="0.5" enable-background="new    " d="M74.081,420.748
		c1.07,0.47,1.6,1.25,1.6,2.34C74.061,423.168,73.531,422.388,74.081,420.748z"/>
	<path fill="#809980" stroke="#809980" stroke-width="0.5" d="M95.401,422.298c0.61,0.11,1.84,0.35,2.46,0.47
		c0.28,0.15,0.84,0.45,1.12,0.61c0.9,0.49,1.78,1.01,2.68,1.51c4.94,3.37,10.43,6.19,14.41,10.77c2.42,2.72,3.58,6.24,4.28,9.75
		c-1.02-0.04-3.05-0.14-4.06-0.18c-0.63-6.39-5.86-10.6-10.49-14.35C102.461,427.858,98.261,425.808,95.401,422.298z"/>
	<path fill="#003300" stroke="#003300" stroke-width="0.5" d="M101.661,424.888c0.52-0.1,1.58-0.32,2.11-0.42
		c0.11,0.07,0.33,0.21,0.44,0.28l0.57,0.38c1.07,1,2.39,1.75,3.85,2.01l1.41,0.38l0.14,0.03l0.09,0.1l1.12,1.12
		c0.73,1.08,1.42,2.83,3.05,2.54l1.07-0.04l0.1,1.1c-0.14,1.58,1.22,2.55,2.5,3.12c0.48,0.51,1.42,1.52,1.89,2.03
		c0.04,0.06,0.11,0.19,0.14,0.25l0.93,1.69c0.04,0.07,0.11,0.21,0.15,0.28l0.89,1.7c0.04,0.07,0.11,0.21,0.15,0.28l0.84,1.78
		c0.02,0.07,0.08,0.22,0.11,0.29l0.59,2.06c-0.38,0.06-1.13,0.18-1.51,0.24c-0.65-0.24-1.29-0.47-1.94-0.68
		c-0.7-3.51-1.86-7.03-4.28-9.75C112.091,431.078,106.601,428.258,101.661,424.888z"/>
	<path opacity="0.72" fill="#45603C" stroke="#45603C" stroke-width="0.5" enable-background="new    " d="M103.771,424.468
		c0.11,0.07,0.33,0.21,0.44,0.28C104.101,424.678,103.881,424.538,103.771,424.468z"/>
	<path opacity="0.6" fill="#263E23" stroke="#263E23" stroke-width="0.5" enable-background="new    " d="M76.531,424.698
		c2.32,1.91,4.47,4.03,6.43,6.31C80.231,429.628,77.911,427.438,76.531,424.698z"/>
	<path opacity="0.71" fill="#2A4825" stroke="#2A4825" stroke-width="0.5" enable-background="new    " d="M104.781,425.128
		c1.34-0.56,4.07,0.3,3.85,2.01C107.171,426.878,105.851,426.128,104.781,425.128z"/>
	<path opacity="0.6" fill="#4B5D44" stroke="#4B5D44" stroke-width="0.5" enable-background="new    " d="M110.041,427.518
		c0.06,0.03,0.17,0.1,0.23,0.13l-0.09-0.1L110.041,427.518z"/>
	<path fill="#809980" stroke="#809980" stroke-width="0.5" d="M111.391,428.768c1.4-0.89,3.6,1.03,3.05,2.54
		C112.811,431.598,112.121,429.848,111.391,428.768z"/>
	<path opacity="0.73" fill="#2D4B29" stroke="#2D4B29" stroke-width="0.5" enable-background="new    " d="M84.681,432.058
		c1.1-0.01,1.85,0.54,2.25,1.67C85.331,434.228,84.581,433.668,84.681,432.058z"/>
	<path fill="#809980" stroke="#809980" stroke-width="0.5" d="M115.611,432.368c1.49-0.59,3.24,1.76,2.5,3.12
		C116.831,434.918,115.471,433.948,115.611,432.368z"/>
	<path opacity="0.5" fill="#4A5745" stroke="#4A5745" stroke-width="0.5" enable-background="new    " d="M89.011,435.558
		c0.06,0.03,0.18,0.1,0.23,0.13C89.191,435.658,89.071,435.588,89.011,435.558z"/>
	<path fill="#669933" stroke="#669933" stroke-width="0.5" d="M90.321,436.248c8.12,4.4,16.95,7.16,25.97,8.98
		c8.05,5.55,17.12,10.23,23.03,18.3c1.73,2.18,2.69,4.82,3.3,7.5c-11.02-0.85-22.2-2.59-31.93-8.16l-0.12,1.51
		c-0.19-0.51-0.57-1.52-0.76-2.03c-5.09-2.87-10.12-6.15-13.82-10.75C92.521,447.218,91.151,441.658,90.321,436.248z"/>
	<path opacity="0.34" fill="#3E443C" stroke="#3E443C" stroke-width="0.5" enable-background="new    " d="M120.001,437.518
		c0.04,0.06,0.11,0.19,0.14,0.25C120.111,437.708,120.041,437.578,120.001,437.518z"/>
	<path opacity="0.58" fill="#4B5C45" stroke="#4B5C45" stroke-width="0.5" enable-background="new    " d="M121.071,439.458
		c0.04,0.07,0.11,0.21,0.15,0.28C121.181,439.668,121.111,439.528,121.071,439.458z"/>
	<path opacity="0.68" fill="#48603F" stroke="#48603F" stroke-width="0.5" enable-background="new    " d="M122.111,441.438
		c0.04,0.07,0.11,0.21,0.15,0.28C122.221,441.648,122.151,441.508,122.111,441.438z"/>
	<path opacity="0.58" fill="#4B5C45" stroke="#4B5C45" stroke-width="0.5" enable-background="new    " d="M123.101,443.498
		c0.02,0.07,0.08,0.22,0.11,0.29C123.181,443.718,123.121,443.568,123.101,443.498z"/>
	<path fill="#B3CC99" stroke="#B3CC99" stroke-width="0.5" d="M116.291,445.228c1.01,0.04,3.04,0.14,4.06,0.18
		c0.65,0.21,1.29,0.44,1.94,0.68c10.02,5.89,21.93,12.73,24.11,25.25c-1.26-0.16-2.51-0.26-3.78-0.31c-0.61-2.68-1.57-5.32-3.3-7.5
		C133.411,455.458,124.341,450.778,116.291,445.228z"/>
	<path fill="#669933" stroke="#669933" stroke-width="0.5" d="M123.801,445.848c4.43,2.11,8.86,4.36,12.81,7.3
		c6.12,4.67,10.46,11.24,13.99,17.99c-1.15,0.12-2.3,0.24-3.45,0.35c-0.19-0.04-0.56-0.12-0.75-0.15
		c-2.18-12.52-14.09-19.36-24.11-25.25C122.671,446.028,123.421,445.908,123.801,445.848z"/>
	<path fill="#99CC66" stroke="#99CC66" stroke-width="0.5" d="M176.791,451.328c5.2-3.83,13.74-5.98,18.3-0.07
		c-1.16,3.02-2.42,6-3.4,9.08c-2.87-2.65-5.76-6.4-10.09-6.19c-3.9,0.19-6.5,3.56-8.44,6.57c-3.29,5.4-6.06,11.14-8.03,17.16
		c-1.21-0.93-2.49-1.76-3.79-2.54C164.861,466.508,169.001,457.218,176.791,451.328z"/>
	<path fill="#CCFF99" stroke="#CCFF99" stroke-width="0.5" d="M173.161,460.718c1.94-3.01,4.54-6.38,8.44-6.57
		c4.33-0.21,7.22,3.54,10.09,6.19c-4.08,12.63-5.84,25.93-5.29,39.18c-3-1.75-6.25-3.03-9.15-4.95c-3.11-6.15-6.6-12.37-12.12-16.69
		C167.101,471.858,169.871,466.118,173.161,460.718z"/>
	<path fill="#003300" stroke="#003300" stroke-width="0.5" d="M110.691,462.868c9.73,5.57,20.91,7.31,31.93,8.16
		c6.63,5.13,14.46,8.7,20.35,14.78c2.74,2.84,4.56,6.38,6.5,9.77c-1.62,1.35-3.81,1.2-5.78,1.33c-10.28,0.37-20.47-2.07-30.06-5.63
		l-1.39-0.55l-0.14-0.06l-0.1-0.1l-0.98-0.9c-0.54-0.93-1.33-1.49-2.36-1.68l-0.73-0.23c-0.42-1.03-1.16-1.61-2.23-1.73
		c-0.45-0.35-1.34-1.04-1.78-1.38c-0.59-1.27-1.51-2.75-3.13-2.58l-0.81-0.06c-0.75-0.76-1.5-1.51-2.25-2.26l-0.02-0.69
		c-0.01-1.11-0.58-1.84-1.71-2.2c-0.45-0.51-1.34-1.54-1.78-2.05l-0.1-0.2l-0.1-0.18l-0.84-1.62l-0.08-0.18l-0.09-0.18l-0.86-1.75
		c-0.02-0.07-0.08-0.2-0.1-0.27c-0.1-0.6-0.29-1.79-0.39-2.39c-0.23-0.47-0.69-1.4-0.92-1.87c-0.04-0.45-0.13-1.34-0.17-1.79
		L110.691,462.868z"/>
	<path opacity="0.67" fill="#425A39" stroke="#425A39" stroke-width="0.5" enable-background="new    " d="M110.741,466.168
		c0.23,0.47,0.69,1.4,0.92,1.87l-0.88-0.1l-0.47-0.96L110.741,466.168z"/>
	<path fill="#99CC66" stroke="#99CC66" stroke-width="0.5" d="M293.211,471.818c5.26-1.81,10.62-4.6,16.35-3.56
		c3,0.53,4.81,3.4,5.6,6.12c1.23,4.44,0.71,9.09,0.55,13.62c3.16,2.57,6.56,4.85,9.91,7.17c16.14,11.75,31.72,24.25,47.06,37.02
		c12.62,10.36,25.3,20.63,38.09,30.77c9.95,7.37,19.99,15.11,31.77,19.31c7.8,2.87,16.09,0.1,23.49-2.67
		c11.56-4.59,22.48-10.6,33.31-16.68c17.5-9.64,34.75-19.72,52.27-29.32c28.15-14.93,57.02-29.26,88.08-37.05
		c18.96-4.65,39-6.9,58.27-2.81c-11.52-1.08-23.21-1.38-34.61,0.95c-22.09,3.99-42.65,13.5-62.46,23.7
		c-30.92,16.42-59.7,36.46-89.86,54.18c-16.2,9.16-32.82,18.7-51.39,21.92c-10.03,1.85-20.41-0.37-29.34-5.1
		c-15.37-7.83-28.11-19.68-40.73-31.22c-3-2.89-5.87-5.96-9.37-8.25c-20.39-20.69-40.85-41.75-65.17-57.88
		c-1.63,7.78-3.76,15.43-6.32,22.95c-2.12,5.64-3.82,11.49-6.6,16.84c-3.09,1.75-6.89,1.27-10.32,1.62
		c4.48-11.44,8.86-22.94,12.38-34.72c1.99-7.04,4.53-14.3,3.31-21.72c-1.65,0.21-3.41,0.22-4.83,1.22
		c-10.24,6.53-19.82,14.06-29.28,21.66c-7.54,6.47-15.93,12.16-21.75,20.37c-3.36-5.57-2.4-12.43-0.15-18.22
		c1.53-3.81,3.02-8.11,6.77-10.3c8.87-5.85,18.14-11.07,27.23-16.57c-7.75-3.68-16.68-4.84-25.01-2.61
		c-13.56,3.2-25.19,11.26-36.77,18.63c-9.11,5.88-17.12,13.25-24.5,21.15c-0.92-1.61-1.96-3.15-3.08-4.63
		c4.03-2.59,7.49-5.92,11.28-8.83c11.46-9.01,23.62-17.37,37.15-22.96c5.76-2.31,11.94-3.25,18.01-4.38
		c7.19-1.13,14.48-2.92,21.79-1.89C287.201,470.588,290.071,473.248,293.211,471.818z"/>
	<path opacity="0.45" fill="#485243" stroke="#485243" stroke-width="0.5" enable-background="new    " d="M112.051,470.428
		c0.02,0.07,0.08,0.2,0.1,0.27C112.131,470.628,112.071,470.498,112.051,470.428z"/>
	<path fill="#809980" stroke="#809980" stroke-width="0.5" d="M142.621,471.028c1.27,0.05,2.52,0.15,3.78,0.31
		c0.19,0.03,0.56,0.11,0.75,0.15c4.16,2.2,8.59,3.93,12.46,6.66c6.07,4.01,10.37,10.14,13.54,16.59c0.65,0.16,1.96,0.49,2.61,0.65
		l-0.54,0.29c-1.67,0.24-3.35,0.43-5.03,0.62c-0.18-0.18-0.54-0.54-0.72-0.72c-1.94-3.39-3.76-6.93-6.5-9.77
		C157.081,479.728,149.251,476.158,142.621,471.028z"/>
	<path fill="#003300" stroke="#003300" stroke-width="0.5" d="M147.151,471.488c1.15-0.11,2.3-0.23,3.45-0.35l0.95,0.07
		c0.45,0.25,1.35,0.76,1.8,1.02l1.2-0.01c0.45,0.27,1.35,0.83,1.8,1.1l1.51,0.17c0.11,0.04,0.33,0.12,0.45,0.16
		c1,0.56,2.02,1.13,3.03,1.69c1.3,0.78,2.58,1.61,3.79,2.54c5.52,4.32,9.01,10.54,12.12,16.69c-0.37,0.2-1.12,0.61-1.49,0.82
		c-0.65-0.16-1.96-0.49-2.61-0.65c-3.17-6.45-7.47-12.58-13.54-16.59C155.741,475.418,151.311,473.688,147.151,471.488z"/>
	<path opacity="0.41" fill="#394434" stroke="#394434" stroke-width="0.5" enable-background="new    " d="M151.551,471.208
		c0.43,0.03,1.31,0.1,1.74,0.14l0.06,0.88C152.901,471.968,152.001,471.458,151.551,471.208z"/>
	<path fill="#CCFF99" stroke="#CCFF99" stroke-width="0.5" d="M260.461,472.558c8.33-2.23,17.26-1.07,25.01,2.61
		c-9.09,5.5-18.36,10.72-27.23,16.57c-3.75,2.19-5.24,6.49-6.77,10.3c-2.25,5.79-3.21,12.65,0.15,18.22
		c5.82-8.21,14.21-13.9,21.75-20.37c9.46-7.6,19.04-15.13,29.28-21.66c1.42-1,3.18-1.01,4.83-1.22c1.22,7.42-1.32,14.68-3.31,21.72
		c-3.52,11.78-7.9,23.28-12.38,34.72c3.43-0.35,7.23,0.13,10.32-1.62c2.78-5.35,4.48-11.2,6.6-16.84
		c27.21,14.32,52.47,32.25,75.44,52.66c10.34,9.73,20.14,20.31,32.47,27.61c12.13,7.44,26.82,11.54,41.02,8.9
		c4.77-0.8,9.42-2.13,14.02-3.63c-16.03,1.05-32.25-2.52-46.41-10.07c-13.37-6.95-24.86-17.04-34.72-28.35
		c-3.42-4.09-7.42-7.7-10.33-12.19c3.5,2.29,6.37,5.36,9.37,8.25c12.62,11.54,25.36,23.39,40.73,31.22
		c8.93,4.73,19.31,6.95,29.34,5.1c18.57-3.22,35.19-12.76,51.39-21.92c30.16-17.72,58.94-37.76,89.86-54.18
		c19.81-10.2,40.37-19.71,62.46-23.7c11.4-2.33,23.09-2.03,34.61-0.95c12.31,2.3,24.1,7.43,34.17,14.87
		c13.12,9.79,24.74,21.65,33.86,35.27c16.51,24.21,23.49,53.99,22.55,83.07c0.51-0.17,1.51-0.5,2.02-0.67
		c-0.51,0.23-1.51,0.67-2.02,0.9c-0.81,18.33-4.19,36.55-9.94,53.98c1.11-0.23,3.34-0.68,4.45-0.9c-1.82,0.72-4.7,0.61-5.26,2.93
		c-7.31,21.4-17.46,41.96-30.89,60.21c-1.98,2.58-4.09,5.79-2.76,9.17c2.12,5.87,6.63,10.42,10.24,15.4
		c8.86,11.25,14.95,24.89,16.33,39.21c1.53,11.36,0.04,22.88-2.29,34.02c-3.21,14.24-8.47,27.92-14.57,41.15
		c-9.39,20.35-18.76,40.75-29.71,60.32c-7.38,12.71-15.34,25.56-26.95,34.87c-11.06,8.67-25.75,11.16-39.46,10.01
		c-5.35-0.45-11.49-2.56-13.43-8.11c-2.38-7.96-0.16-16.35,1.62-24.21c6.81-26.07,16.89-51.15,24.24-77.07
		c3.07-11.26,5.94-23.68,1.3-34.93c-4.46-10.72-11.28-20.2-16.75-30.39c1.51,1.71,3.26,3.2,5.04,4.63
		c-3.25-10.45-8.42-20.21-11.78-30.64c-3.38-9.91-6.42-20.15-6.6-30.7c-0.02-13.11,5.47-25.25,8.51-37.77
		c0.42-2.77,1.47-6.38-0.93-8.52c-4.17-2.17-8.98,0.83-11.15,4.49c-4.5,7.17-5.66,15.81-6.56,24.07c-1.69,0.65-3.26,1.6-4.6,2.83
		c-10.78,9.08-22.36,17.16-33.71,25.51c-22.62,15.72-46.53,29.93-72.29,39.89c-5.87,2.42-12.85,3.25-17.25,8.28
		c-5.44,6.17-8.59,13.95-11.3,21.62c-8.27,25.19-11.5,51.62-16.5,77.57c-0.64,3.59-1.88,8.92,2.23,10.94
		c3.32,0.79,6.42-1.09,9.23-2.58c7.04-4.36,12.82-10.67,16.9-17.85c3-4.99,3.45-10.97,6.17-16.08c7.21-3.42,14.99-0.12,22.48,0.04
		c8.12,0.6,15.89-2.27,23.35-5.08c4.57-1.81,9.19-3.81,12.99-6.99c2.28-1.83,3.21-4.69,4.36-7.26c4.56,1.67,8.72,5.07,9.99,9.95
		c2.01,8.86-1.29,17.79-4.9,25.78c-6.69,13.87-15.8,26.42-25.68,38.18c-8.57,10.04-17.79,19.6-28.17,27.79
		c-5.59,4.57-11.92,8.21-18.82,10.42c-25.12,8.78-51.25,16.44-78.1,16.13c-9.94-0.47-21.17-2.46-27.72-10.73
		c-5.25-7.4-7.16-16.61-7.89-25.49c0.59-8.02-0.08-16.12,1.24-24.08c2.92-25.53,8.96-50.59,11.79-76.13
		c1.3-13.49,2.35-27.72-2.68-40.61c-2.98-7.83-9.79-13.89-17.85-16.08c-3.05-0.71-6.93-2.34-9.61,0.06
		c-5.09,4.42-8.47,10.38-11.93,16.07c-9.76,16.88-17.84,34.67-25.34,52.65c-1.91,5.13-4.69,10.03-5.27,15.57
		c-3.69,10.23-8.2,20.2-11.72,30.53c-5.92,16.36-10.64,33.12-15.44,49.83c-9.4,31.62-20.37,63.07-36.84,91.78
		c-8.16,13.94-17.6,27.39-29.92,37.99c-11.84,10.23-26.97,17.45-42.86,17.21c-5.83,0.02-12.37-2.14-15.34-7.52
		c-3.14-5.26-2.8-11.63-2.34-17.49c2.35-17.26,9.94-33.13,16.55-49.05c26.27-63.61,41.99-130.79,62.96-196.17
		c4.1-13.06,8.45-26.05,13.01-38.96c5.49-15.11,6.4-31.42,5.62-47.34c0.3-3.1,0.47-6.22,0.15-9.32
		c-2.31-28.44-8.73-56.47-17.83-83.48c-3.57,3.9-6.36,8.4-9.64,12.54c-10.76,13.77-22.64,26.71-35.86,38.16
		c-2.15,1.93-4.95,3.41-6.03,6.25c-9.31,7.3-19.85,13.12-30.62,18.03c-10.28,4.49-21.31,7.49-32.58,7.72
		c-13.46-0.07-27.23-0.74-40.03-5.36c-12.2-4-23.35-12.38-28.75-24.25c-7.08-14.92-5.8-32.12-2.79-47.88
		c3.39-16,8.54-31.69,15.34-46.54c0.37,4.75-2.13,9.59-0.24,14.21c0.97,1.03,2.03,1.1,3.18,0.22c2.25-1.36,3.84-3.53,5.38-5.61
		c6-8.62,10.15-18.37,13.65-28.23c0.74-1.88,0.74-3.94,0.83-5.91c0.38-1.32,0.82-2.62,1.25-3.91c2.45-6.66,2.52-13.95,2.4-20.96
		c-0.55,0.04-1.64,0.12-2.18,0.16c9.43-18.05,20.62-35.14,32.54-51.64c2.12-2.9,3.71-6.15,4.88-9.54c-0.88-0.64-1.75-1.29-2.62-1.94
		c2.63,1.76,5.27,3.5,7.96,5.17c0.36,0.96,0.7,1.93,1.03,2.9c1.86,8.63,6.39,17.25,14.57,21.35c5.43,4.11,12.36,0.91,17.86-1.37
		c8.79-3.83,12.46-13.56,14.06-22.36c-0.9-1.88-1.78-3.76-2.76-5.6c7.38-7.9,15.39-15.27,24.5-21.15
		C235.271,483.818,246.901,475.758,260.461,472.558 M660.641,511.238c-19.88,3.17-38.36,12.46-54.16,24.72
		c-9.8,7.73-18.94,16.57-25.68,27.15c-2.11,3.64-4.47,7.69-3.98,12.06c0.47,2.18,3.17,2.09,4.89,1.78
		c5.01-0.89,9.55-3.37,14.23-5.27c19.3-9.01,38.34-18.84,58.69-25.34c17.29-5.5,36.21-8.7,53.99-3.52
		c16.65,4.55,30.5,15.71,41.9,28.29c2.38,2.18,4.22,5.56,7.7,6.02c1-8.12-3.54-15.43-7.65-22.02
		c-11.23-16.73-27.29-30.33-45.86-38.21C690.921,510.888,675.481,508.998,660.641,511.238 M201.541,593.918
		c-7.29,4.53-12.63,11.47-18.71,17.41c-10.98,11.27-10.77,31.05,0.45,42.1c10.56,11.53,30.11,12.52,41.84,2.19
		c7.01-5.41,7.64-15.14,6.77-23.27l-0.99,0.64c1.3-7.49-0.62-15.4-5.4-21.34c-1.67-5.98-5.64-11.16-9.88-15.6
		C212.071,592.228,206.031,591.028,201.541,593.918 M83.681,695.248c-2.81,4.17-1.39,9.45,0.16,13.8c1.71,4.5,0.91,9.37,1.03,14.07
		c1.22,0.09,3.29,0.72,3.37-1.16c0.66-4.37,0.61-8.85,1.99-13.09c1.36-4.36,2.17-9.63-0.77-13.54
		C88.131,693.378,84.971,693.118,83.681,695.248 M134.911,704.588c-2.49,0.54-3.84,2.97-4.72,5.15c-2.28,5.81-1.48,12.2-2.3,18.29
		c-0.27,1.98-0.47,5.57,2.61,4.94c1.37-1.86,0.91-4.41,1.5-6.54c0.68-5.63,7.97-7.5,8.03-13.37
		C140.181,709.768,138.781,704.888,134.911,704.588z"/>
	<path opacity="0.63" fill="#4A5E43" stroke="#4A5E43" stroke-width="0.5" enable-background="new    " d="M113.011,472.448
		l0.09,0.18l0.08,0.18C113.141,472.718,113.051,472.538,113.011,472.448z"/>
	<path opacity="0.49" fill="#3B4A35" stroke="#3B4A35" stroke-width="0.5" enable-background="new    " d="M154.551,472.218
		l0.84-0.38l0.92,0.56l0.04,0.92C155.901,473.048,155.001,472.488,154.551,472.218z"/>
	<path opacity="0.4" fill="#434C40" stroke="#434C40" stroke-width="0.5" enable-background="new    " d="M157.861,473.488
		c0.11,0.04,0.33,0.12,0.45,0.16C158.191,473.608,157.971,473.528,157.861,473.488z"/>
	<path opacity="0.5" fill="#4A5745" stroke="#4A5745" stroke-width="0.5" enable-background="new    " d="M114.021,474.428l0.1,0.18
		l0.1,0.2C114.171,474.718,114.071,474.518,114.021,474.428z"/>
	<path opacity="0.76" fill="#2E4E29" stroke="#2E4E29" stroke-width="0.5" enable-background="new    " d="M116.001,476.858
		c1.13,0.36,1.7,1.09,1.71,2.2C116.091,479.168,115.511,478.438,116.001,476.858z"/>
	<path opacity="0.76" fill="#284923" stroke="#284923" stroke-width="0.5" enable-background="new    " d="M120.791,482.068
		c1.62-0.17,2.54,1.31,3.13,2.58C122.571,485.348,120.191,483.538,120.791,482.068z"/>
	<path opacity="0.66" fill="#2E4829" stroke="#2E4829" stroke-width="0.5" enable-background="new    " d="M125.701,486.028
		c1.07,0.12,1.81,0.7,2.23,1.73C126.231,488.238,125.491,487.658,125.701,486.028z"/>
	<path opacity="0.65" fill="#294325" stroke="#294325" stroke-width="0.5" enable-background="new    " d="M128.661,487.988
		c1.03,0.19,1.82,0.75,2.36,1.68C129.311,490.258,128.521,489.698,128.661,487.988z"/>
	<path opacity="0.53" fill="#4B5945" stroke="#4B5945" stroke-width="0.5" enable-background="new    " d="M132.001,490.568l0.1,0.1
		l0.14,0.06C132.181,490.688,132.061,490.608,132.001,490.568z"/>
	<path fill="#669933" stroke="#669933" stroke-width="0.5" d="M133.631,491.278c9.59,3.56,19.78,6,30.06,5.63
		c1.97-0.13,4.16,0.02,5.78-1.33c0.18,0.18,0.54,0.54,0.72,0.72c6.72,4.22,14.04,7.85,19.36,13.9c2.48,2.73,4.29,5.98,5.85,9.3
		c-8.48,1.21-17.06,2.77-25.65,1.81c-4.99-0.48-9.79-1.99-14.59-3.32c0.08,0.58,0.22,1.75,0.3,2.33c-0.33-0.97-0.67-1.94-1.03-2.9
		c-2.69-1.67-5.33-3.41-7.96-5.17c-3.28-2.27-6.3-4.99-8.63-8.24C135.231,500.258,134.381,495.688,133.631,491.278z"/>
	<path fill="#FFFFFF" stroke="#FFFFFF" stroke-width="0.5" d="M315.031,492.038c24.32,16.13,44.78,37.19,65.17,57.88
		c2.91,4.49,6.91,8.1,10.33,12.19c9.86,11.31,21.35,21.4,34.72,28.35c14.16,7.55,30.38,11.12,46.41,10.07
		c-4.6,1.5-9.25,2.83-14.02,3.63c-14.2,2.64-28.89-1.46-41.02-8.9c-12.33-7.3-22.13-17.88-32.47-27.61
		c-22.97-20.41-48.23-38.34-75.44-52.66C311.271,507.468,313.401,499.818,315.031,492.038z"/>
	<path fill="#669933" stroke="#669933" stroke-width="0.5" d="M177.251,494.568c2.9,1.92,6.15,3.2,9.15,4.95
		c3.65,2.19,7.1,4.8,9.71,8.19c1.12,1.48,2.16,3.02,3.08,4.63c0.98,1.84,1.86,3.72,2.76,5.6c-1.02,0.29-2.03,0.57-3.05,0.84
		c-1.19-5.32-3.95-10.31-8.23-13.76c-4.71-3.78-10.08-6.64-15.45-9.34l0.54-0.29C176.131,495.178,176.881,494.768,177.251,494.568z"
		/>
	<path fill="#B3CC99" stroke="#B3CC99" stroke-width="0.5" d="M170.191,496.298c1.68-0.19,3.36-0.38,5.03-0.62
		c5.37,2.7,10.74,5.56,15.45,9.34c4.28,3.45,7.04,8.44,8.23,13.76c-1.16,0.28-2.32,0.52-3.5,0.72c-1.56-3.32-3.37-6.57-5.85-9.3
		C184.231,504.148,176.911,500.518,170.191,496.298z"/>
	<path fill="#FFFFFF" stroke="#FFFFFF" stroke-width="0.5" d="M660.641,511.238c14.84-2.24,30.28-0.35,44.07,5.66
		c18.57,7.88,34.63,21.48,45.86,38.21c4.11,6.59,8.65,13.9,7.65,22.02c-3.48-0.46-5.32-3.84-7.7-6.02
		c-11.4-12.58-25.25-23.74-41.9-28.29c-17.78-5.18-36.7-1.98-53.99,3.52c-20.35,6.5-39.39,16.33-58.69,25.34
		c-4.68,1.9-9.22,4.38-14.23,5.27c-1.72,0.31-4.42,0.4-4.89-1.78c-0.49-4.37,1.87-8.42,3.98-12.06
		c6.74-10.58,15.88-19.42,25.68-27.15C622.281,523.698,640.761,514.408,660.641,511.238z"/>
	<path fill="#003300" stroke="#003300" stroke-width="0.5" d="M155.161,517.988c4.8,1.33,9.6,2.84,14.59,3.32
		c8.59,0.96,17.17-0.6,25.65-1.81c1.18-0.2,2.34-0.44,3.5-0.72c1.02-0.27,2.03-0.55,3.05-0.84c-1.6,8.8-5.27,18.53-14.06,22.36
		c-5.5,2.28-12.43,5.48-17.86,1.37c-8.18-4.1-12.71-12.72-14.57-21.35C155.381,519.738,155.241,518.568,155.161,517.988z"/>
	<path fill="#FFFFFF" stroke="#FFFFFF" stroke-width="0.5" d="M111.671,575.368c0.54-0.04,1.63-0.12,2.18-0.16
		c0.12,7.01,0.05,14.3-2.4,20.96c0.04-0.28,0.14-0.84,0.18-1.13c-2.19,4.51-4.28,9.07-7.13,13.21c-0.22-0.48-0.68-1.45-0.9-1.94
		c1.14-4.73,2.81-9.32,4.9-13.71c0.95-2.77,4.88-5.35,2.87-8.33c-1.09-0.23-2.05,0.01-2.89,0.71c-2.96,2.31-4.78,5.69-6.93,8.69
		C104.601,587.408,107.881,581.228,111.671,575.368z"/>
	<path fill="#006699" stroke="#006699" stroke-width="0.5" d="M108.481,584.978c0.84-0.7,1.8-0.94,2.89-0.71
		c2.01,2.98-1.92,5.56-2.87,8.33c-1.52-0.31-2.94,0.26-3.77,1.57c-4.01,5.25-6.49,11.54-8.21,17.87c-0.47,2.53-1.72,5.93,1.04,7.58
		c-1.98,3.42-3.25,7.2-4.05,11.07c3.34-3.51,5.56-8.29,5.64-13.17c2.19-2.84,3.71-6.1,5.35-9.27c2.85-4.14,4.94-8.7,7.13-13.21
		c-0.04,0.29-0.14,0.85-0.18,1.13c-0.43,1.29-0.87,2.59-1.25,3.91c-3,9.71-7.13,19.17-12.92,27.55c-1.7,1.87-3.58,5.18-6.55,4.34
		c-0.73-1.5-0.92-3.17-0.79-4.8c0.41-6.35,2.58-12.38,4.55-18.37l0.39-0.63c0.27-0.41,0.82-1.25,1.09-1.66l-0.06-1.57
		c0.04-0.11,0.12-0.32,0.16-0.43l0.91-1.77c0.03-0.07,0.1-0.21,0.13-0.28l0.81-1.77c0.03-0.06,0.09-0.19,0.12-0.25l0.85-1.78
		c0.03-0.06,0.09-0.19,0.12-0.25l0.87-1.73c0.03-0.07,0.1-0.2,0.13-0.27l0.92-1.74c0.04-0.06,0.12-0.19,0.15-0.25l0.47-0.75
		C103.701,590.668,105.521,587.288,108.481,584.978z"/>
	<path stroke="#000000" stroke-width="0.5" d="M104.731,594.168c0.83-1.31,2.25-1.88,3.77-1.57c-2.09,4.39-3.76,8.98-4.9,13.71
		c0.22,0.49,0.68,1.46,0.9,1.94c-1.64,3.17-3.16,6.43-5.35,9.27c-0.4,0.52-1.19,1.57-1.59,2.1c-2.76-1.65-1.51-5.05-1.04-7.58
		C98.241,605.708,100.721,599.418,104.731,594.168z"/>
	<path fill="#FFFFFF" stroke="#FFFFFF" stroke-width="0.5" d="M201.541,593.918c4.49-2.89,10.53-1.69,14.08,2.13
		c4.24,4.44,8.21,9.62,9.88,15.6c-5.07-6.07-12.96-9.68-20.88-9.47c-9.42,0.24-18.45,6.06-22.51,14.58
		c-4.6,9.23-2.99,21.22,4.21,28.69c5.5,6.22,14.11,9.46,22.34,8.26c10.9-1.1,20.14-10.07,22.24-20.72l0.99-0.64
		c0.87,8.13,0.24,17.86-6.77,23.27c-11.73,10.33-31.28,9.34-41.84-2.19c-11.22-11.05-11.43-30.83-0.45-42.1
		C188.911,605.388,194.251,598.448,201.541,593.918z"/>
	<path opacity="0.74" fill="#67899A" stroke="#67899A" stroke-width="0.5" enable-background="new    " d="M100.931,594.668
		c0.04-0.06,0.12-0.19,0.15-0.25C101.051,594.478,100.971,594.608,100.931,594.668z"/>
	<path opacity="0.78" fill="#588499" stroke="#588499" stroke-width="0.5" enable-background="new    " d="M99.881,596.678
		c0.03-0.07,0.1-0.2,0.13-0.27C99.981,596.478,99.911,596.608,99.881,596.678z"/>
	<path opacity="0.77" fill="#558197" stroke="#558197" stroke-width="0.5" enable-background="new    " d="M98.891,598.658
		c0.03-0.06,0.09-0.19,0.12-0.25C98.981,598.468,98.921,598.598,98.891,598.658z"/>
	<path opacity="0.74" fill="#517C90" stroke="#517C90" stroke-width="0.5" enable-background="new    " d="M97.921,600.688
		c0.03-0.06,0.09-0.19,0.12-0.25C98.011,600.498,97.951,600.628,97.921,600.688z"/>
	<path fill="#FFFFFF" stroke="#FFFFFF" stroke-width="0.5" d="M97.281,627.628c5.79-8.38,9.92-17.84,12.92-27.55
		c-0.09,1.97-0.09,4.03-0.83,5.91c-3.5,9.86-7.65,19.61-13.65,28.23c-1.54,2.08-3.13,4.25-5.38,5.61c-1.15,0.88-2.21,0.81-3.18-0.22
		c-1.89-4.62,0.61-9.46,0.24-14.21c2.03-5.66,4.69-11.1,7.09-16.6c-1.97,5.99-4.14,12.02-4.55,18.37c-0.13,1.63,0.06,3.3,0.79,4.8
		C93.701,632.808,95.581,629.498,97.281,627.628z"/>
	<path opacity="0.62" fill="#54727F" stroke="#54727F" stroke-width="0.5" enable-background="new    " d="M96.981,602.738
		c0.03-0.07,0.1-0.21,0.13-0.28C97.081,602.528,97.011,602.668,96.981,602.738z"/>
	<path fill="#006699" stroke="#006699" stroke-width="0.5" d="M182.111,616.758c4.06-8.52,13.09-14.34,22.51-14.58
		c7.92-0.21,15.81,3.4,20.88,9.47c4.78,5.94,6.7,13.85,5.4,21.34c-2.1,10.65-11.34,19.62-22.24,20.72
		c-8.23,1.2-16.84-2.04-22.34-8.26C179.121,637.978,177.511,625.988,182.111,616.758 M199.041,612.898
		c-8.07,2.9-10.41,14.45-5.18,20.94c3.71,5.36,10.99,7.02,17.02,5.08c-3.6,2.14-4.72,7.54-1.63,10.6c3.41,3.93,10.78,1.78,11.48-3.4
		c1.11-4.83-4.01-9.06-8.62-7.73c5.32-3.31,8.79-9.58,7.47-15.9c4.48-5.74,2.18-15.15-4.75-17.71
		C208.371,601.808,200.701,606.248,199.041,612.898z"/>
	<path opacity="0.47" fill="#4E5F66" stroke="#4E5F66" stroke-width="0.5" enable-background="new    " d="M95.911,604.938
		c0.04-0.11,0.12-0.32,0.16-0.43C96.031,604.618,95.951,604.828,95.911,604.938z"/>
	<path fill="#FFFFFF" stroke="#FFFFFF" stroke-width="0.5" d="M199.041,612.898c1.66-6.65,9.33-11.09,15.79-8.12
		c6.93,2.56,9.23,11.97,4.75,17.71c-3.54,4.28-10.19,5.91-14.96,2.7C200.241,622.908,198.301,617.618,199.041,612.898z"/>
	<path fill="#FFFFFF" stroke="#FFFFFF" stroke-width="0.5" d="M94.531,607.378c0.36-0.22,1.08-0.66,1.44-0.87
		c-0.27,0.41-0.82,1.25-1.09,1.66L94.531,607.378z"/>
	<path stroke="#000000" stroke-width="0.5" d="M193.861,633.838c-5.23-6.49-2.89-18.04,5.18-20.94c-0.74,4.72,1.2,10.01,5.58,12.29
		c4.77,3.21,11.42,1.58,14.96-2.7c1.32,6.32-2.15,12.59-7.47,15.9c-0.31,0.13-0.92,0.4-1.23,0.53
		C204.851,640.858,197.571,639.198,193.861,633.838z"/>
	<path fill="#FFFFFF" stroke="#FFFFFF" stroke-width="0.5" d="M97.561,619.618c0.4-0.53,1.19-1.58,1.59-2.1
		c-0.08,4.88-2.3,9.66-5.64,13.17C94.311,626.818,95.581,623.038,97.561,619.618z"/>
	<path fill="#FFFFFF" stroke="#FFFFFF" stroke-width="0.5" d="M210.881,638.918c0.31-0.13,0.92-0.4,1.23-0.53
		c4.61-1.33,9.73,2.9,8.62,7.73c-0.7,5.18-8.07,7.33-11.48,3.4C206.161,646.458,207.281,641.058,210.881,638.918z"/>
	<path fill="#99CC66" stroke="#99CC66" stroke-width="0.5" d="M248.721,679.268c3.28-4.14,6.07-8.64,9.64-12.54
		c9.1,27.01,15.52,55.04,17.83,83.48c0.32,3.1,0.15,6.22-0.15,9.32c-2.78-27.54-10.38-54.5-21.61-79.78
		c-12.26,14.08-25.54,27.35-40.3,38.82c-2.32,1.85-4.64,3.75-7.3,5.11c1.08-2.84,3.88-4.32,6.03-6.25
		C226.081,705.978,237.961,693.038,248.721,679.268z"/>
	<path fill="#99CC66" stroke="#99CC66" stroke-width="0.5" d="M783.051,680.258c18.68-3.53,37.5-7.2,56.58-7.12
		c14.69,0.14,29.9,6.13,39.02,17.98c7.95,10.43,10.38,24.2,8.9,37.02c-0.76,6.32-2.13,12.85-5.71,18.22
		c-2.51,3.76-7.61,2.11-11.29,1.77c-15.84-2.8-32.11-2.99-48-0.51c-23.66,3.13-45.89,12.24-68.17,20.35
		c-3.61-4.98-8.12-9.53-10.24-15.4c-1.33-3.38,0.78-6.59,2.76-9.17c13.43-18.25,23.58-38.81,30.89-60.21
		C778.351,680.868,781.231,680.978,783.051,680.258z"/>
	<path fill="#99CC66" stroke="#99CC66" stroke-width="0.5" d="M83.681,695.248c1.29-2.13,4.45-1.87,5.78,0.08
		c2.94,3.91,2.13,9.18,0.77,13.54c-1.38,4.24-1.33,8.72-1.99,13.09c-0.08,1.88-2.15,1.25-3.37,1.16c-0.12-4.7,0.68-9.57-1.03-14.07
		C82.291,704.698,80.871,699.418,83.681,695.248z"/>
	<path fill="#99CC66" stroke="#99CC66" stroke-width="0.5" d="M134.911,704.588c3.87,0.3,5.27,5.18,5.12,8.47
		c-0.06,5.87-7.35,7.74-8.03,13.37c-0.59,2.13-0.13,4.68-1.5,6.54c-3.08,0.63-2.88-2.96-2.61-4.94c0.82-6.09,0.02-12.48,2.3-18.29
		C131.071,707.558,132.421,705.128,134.911,704.588z"/>
	<path fill="#FFFFFF" stroke="#FFFFFF" stroke-width="0.5" d="M637.801,714.328c2.17-3.66,6.98-6.66,11.15-4.49
		c2.4,2.14,1.35,5.75,0.93,8.52c-3.04,12.52-8.53,24.66-8.51,37.77c0.18,10.55,3.22,20.79,6.6,30.7
		c3.36,10.43,8.53,20.19,11.78,30.64c-1.78-1.43-3.53-2.92-5.04-4.63c-5.73-8.56-10.77-17.55-15.14-26.87
		c-0.75-0.17-2.24-0.51-2.98-0.69l0.42,0.05c0.59,0.06,1.75,0.19,2.34,0.25c-3.58-8.51-6.91-17.23-8.27-26.41
		c-0.97-6.89-0.43-13.87,0.16-20.77C632.141,730.138,633.301,721.498,637.801,714.328z"/>
	<path fill="#99CC66" stroke="#99CC66" stroke-width="0.5" d="M626.641,741.228c1.34-1.23,2.91-2.18,4.6-2.83
		c-0.59,6.9-1.13,13.88-0.16,20.77c1.36,9.18,4.69,17.9,8.27,26.41c-0.59-0.06-1.75-0.19-2.34-0.25
		c-15.64-3.55-30.17-10.77-44.08-18.59C604.281,758.388,615.861,750.308,626.641,741.228z"/>
	<path fill="#99CC66" stroke="#99CC66" stroke-width="0.5" d="M374.901,804.428c2.68-2.4,6.56-0.77,9.61-0.06
		c8.06,2.19,14.87,8.25,17.85,16.08c5.03,12.89,3.98,27.12,2.68,40.61c-2.83,25.54-8.87,50.6-11.79,76.13
		c-1.32,7.96-0.65,16.06-1.24,24.08c-1.78-19.82,1.6-39.61,4.43-59.17c2.63-17.9,5.95-35.81,5.94-53.97
		c-0.18-8.55-1.01-17.56-5.57-25.02c-3.77-6.28-11-10.18-18.24-10.23c-4.86,2.28-7.9,7.03-11.16,11.1
		c-11.88,16.59-21.04,34.93-29.63,53.38c-1.89,3.75-3.08,7.85-5.42,11.36c0.58-5.54,3.36-10.44,5.27-15.57
		c7.5-17.98,15.58-35.77,25.34-52.65C366.431,814.808,369.811,808.848,374.901,804.428z"/>
	<path fill="#99CC66" stroke="#99CC66" stroke-width="0.5" d="M537.481,869.378c11.72-2.75,24.1-3.07,35.82-0.14
		c-1.15,2.57-2.08,5.43-4.36,7.26c-3.8,3.18-8.42,5.18-12.99,6.99c-7.46,2.81-15.23,5.68-23.35,5.08
		c-7.49-0.16-15.27-3.46-22.48-0.04C515.401,878.018,526.531,872.218,537.481,869.378z"/>
</g>
<g>
	<path fill="#FF6600" stroke="#FF6600" stroke-width="0.5" d="M1350.711,938.978c1.24-1.24,2.7-2.2,4.13-3.2
		c-1.28,14.92-7.42,29.41-17.75,40.32c-2.15-2.93-0.18-6.97,0.02-10.3c0.8-6.86,4.16-12.88,6.78-19.13
		C1345.881,943.868,1348.411,941.518,1350.711,938.978z"/>
	<path fill="#CC9980" stroke="#CC9980" stroke-width="0.5" d="M1338.721,949.688c3.38-4.15,7.62-7.63,11.99-10.71
		c-2.3,2.54-4.83,4.89-6.82,7.69c-9.1,7.92-13.26,19.72-20.01,29.45c0.3-1.41,0.62-2.8,0.97-4.18l-1.09,0.29
		c0.53-0.61,1.08-1.21,1.64-1.81c2.21-2.47,3.5-5.56,5.15-8.39C1332.971,957.718,1336.091,953.868,1338.721,949.688z"/>
	<path fill="#993300" stroke="#993300" stroke-width="0.5" d="M1323.881,976.118c6.75-9.73,10.91-21.53,20.01-29.45
		c-2.62,6.25-5.98,12.27-6.78,19.13c-0.2,3.33-2.17,7.37-0.02,10.3l0.14,0.18c-1.89,1.38-1.33,3.91-1.98,5.89
		c-0.55,1.14-1.03,2.37-0.79,3.69l0.04,1.31c-0.22,0.46-0.66,1.39-0.87,1.85c-0.12,0.62-0.36,1.87-0.48,2.49
		c-0.02,0.03-0.06,0.11-0.09,0.15l-0.92,1.1c-1,0.52-1.57,1.32-1.7,2.4l-0.14,0.8c-1.66,0.07-2.7,1.44-2.79,3.01
		c-1.8,3.65-5.67,5.97-8.87,8.38c-0.21-8.74,0.49-17.5,2.38-26.03C1321.991,979.588,1322.901,977.838,1323.881,976.118z"/>
	<path fill="#993300" stroke="#993300" stroke-width="0.5" d="M1325.401,970.418c3-7.63,6.99-15.35,13.32-20.73
		c-2.63,4.18-5.75,8.03-8.17,12.34C1328.901,964.858,1327.611,967.948,1325.401,970.418z"/>
	<path fill="#FF6600" stroke="#FF6600" stroke-width="0.5" d="M1303.371,999.638c2.55-11.33,9.42-22.68,20.39-27.41l1.09-0.29
		c-0.35,1.38-0.67,2.77-0.97,4.18c-5.57,2.39-10.14,6.73-13.59,11.63c-2.8,4.09-4.58,8.75-6.75,13.18L1303.371,999.638z"/>
	<path fill="#FFB380" stroke="#FFB380" stroke-width="0.5" d="M1310.291,987.748c3.45-4.9,8.02-9.24,13.59-11.63
		c-0.98,1.72-1.89,3.47-2.86,5.2c-10.4,5.92-13.49,18.36-19.24,28c0.22-1.5,0.43-2.98,0.7-4.46c0.3-1.33,0.68-2.63,1.06-3.93
		C1305.711,996.498,1307.491,991.838,1310.291,987.748z"/>
	<path fill="#FF6600" stroke="#FF6600" stroke-width="0.5" d="M1301.781,1009.318c5.75-9.64,8.84-22.08,19.24-28
		c-1.89,8.53-2.59,17.29-2.38,26.03c-0.56,5.9-2.19,11.92-5.75,16.76c-2.73,3.68-6.23,6.68-9.71,9.62l-0.11-0.35
		c-2.29-7.72-1.99-15.99-1.37-23.93L1301.781,1009.318z"/>
	<path opacity="0.53" fill="#674636" stroke="#674636" stroke-width="0.5" enable-background="new    " d="M1334.461,985.858
		c-0.24-1.32,0.24-2.55,0.79-3.69C1336.411,982.988,1336.251,986.198,1334.461,985.858z"/>
	<path opacity="0.62" fill="#744B36" stroke="#744B36" stroke-width="0.5" enable-background="new    " d="M1333.631,989.018
		c0.21-0.46,0.65-1.39,0.87-1.85l0.45,0.81l-0.45,0.94L1333.631,989.018z"/>
	<path opacity="0.35" fill="#4D403A" stroke="#4D403A" stroke-width="0.5" enable-background="new    " d="M1333.061,991.658
		c0.03-0.04,0.07-0.12,0.09-0.15C1333.131,991.538,1333.091,991.618,1333.061,991.658z"/>
	<path opacity="0.68" fill="#774025" stroke="#774025" stroke-width="0.5" enable-background="new    " d="M1330.441,995.158
		c0.13-1.08,0.7-1.88,1.7-2.4C1332.681,994.418,1332.111,995.218,1330.441,995.158z"/>
	<path opacity="0.73" fill="#7D4022" stroke="#7D4022" stroke-width="0.5" enable-background="new    " d="M1327.511,998.968
		c0.09-1.57,1.13-2.94,2.79-3.01C1330.651,997.278,1328.911,999.468,1327.511,998.968z"/>
	<path opacity="0.49" fill="#593523" stroke="#593523" stroke-width="0.5" enable-background="new    " d="M1297.681,1002.058
		c-0.14-2.2,3.22-3.08,5.01-2.94C1301.691,1000.978,1299.581,1001.578,1297.681,1002.058z"/>
	<path fill="#993300" stroke="#993300" stroke-width="0.5" d="M1302.691,999.118l0.68,0.52l0.17,1.29c-0.38,1.3-0.76,2.6-1.06,3.93
		c-4.8,1.23-9.4,3.76-12.16,8c-3.52,4.7-4.99,10.47-7.73,15.59c0.16-0.96,0.48-2.89,0.64-3.86c0.38-1.84,0.88-3.65,1.61-5.37
		c0.21-0.49,0.62-1.47,0.82-1.96l0.34-1.54c0.02-0.05,0.05-0.16,0.07-0.22l0.84-1.92c0.02-0.04,0.06-0.13,0.08-0.17
		c0.42-1.22,1.12-2.22,2.08-2.99c1.08-0.46,1.63-1.23,1.67-2.32l0.05-1.01c1.22-0.54,2.18-1.55,2.79-2.74l1.09-0.09
		c1.26-0.04,1.94-0.68,2.04-1.92l0.97-0.28C1299.581,1001.578,1301.691,1000.978,1302.691,999.118z"/>
	<path opacity="0.73" fill="#7E4326" stroke="#7E4326" stroke-width="0.5" enable-background="new    " d="M1294.671,1004.258
		c-0.19-1.5,0.49-2.14,2.04-1.92C1296.611,1003.578,1295.931,1004.218,1294.671,1004.258z"/>
	<path opacity="0.12" fill="#1B1918" stroke="#1B1918" stroke-width="0.5" enable-background="new    " d="M1290.791,1007.088
		c-1.16-1.56,1.24-3.86,2.79-2.74C1292.971,1005.538,1292.011,1006.548,1290.791,1007.088z"/>
	<path fill="#CC9980" stroke="#CC9980" stroke-width="0.5" d="M1290.321,1012.858c2.76-4.24,7.36-6.77,12.16-8
		c-0.27,1.48-0.48,2.96-0.7,4.46l-0.08,0.13c-5.04,1.25-8.88,4.94-11.34,9.38c-3.39,4.95-5.31,10.73-8.63,15.7
		c0.17-2,0.38-3.98,0.81-5.94l0.05-0.14C1285.331,1023.328,1286.801,1017.558,1290.321,1012.858z"/>
	<path opacity="0.71" fill="#7C4225" stroke="#7C4225" stroke-width="0.5" enable-background="new    " d="M1289.071,1010.418
		c-0.52-1.64,0.04-2.41,1.67-2.32C1290.701,1009.188,1290.151,1009.958,1289.071,1010.418z"/>
	<path fill="#993300" stroke="#993300" stroke-width="0.5" d="M1290.361,1018.828c2.46-4.44,6.3-8.13,11.34-9.38
		c-0.62,7.94-0.92,16.21,1.37,23.93c-0.33,2.25-1.22,4.44-1.72,6.68c-0.17,0.5-0.52,1.48-0.7,1.97c-0.06,0.49-0.18,1.46-0.23,1.95
		c-0.22,0.49-0.64,1.46-0.86,1.95l-0.39,1.58c-0.02,0.05-0.05,0.15-0.07,0.2l-0.83,1.81c-0.03,0.05-0.08,0.15-0.1,0.2l-0.98,1.84
		c-0.03,0.06-0.09,0.16-0.11,0.21c-2.85,5.26-7.11,9.51-11.29,13.71c-0.99,2.54-0.14,5.4-0.77,8.04c0.05-3.48,0.39-7.01-0.51-10.41
		c-2.25-9.19-3.72-18.65-3.22-28.14l0.44-0.44C1285.051,1029.558,1286.971,1023.778,1290.361,1018.828z"/>
	<path opacity="0.66" fill="#7B4F39" stroke="#7B4F39" stroke-width="0.5" enable-background="new    " d="M1286.911,1013.578
		c0.02-0.04,0.06-0.13,0.08-0.17C1286.971,1013.448,1286.931,1013.538,1286.911,1013.578z"/>
	<path opacity="0.54" fill="#6C4E3F" stroke="#6C4E3F" stroke-width="0.5" enable-background="new    " d="M1286.001,1015.718
		c0.02-0.05,0.05-0.16,0.07-0.22C1286.051,1015.558,1286.021,1015.668,1286.001,1015.718z"/>
	<path opacity="0.48" fill="#5F4538" stroke="#5F4538" stroke-width="0.5" enable-background="new    " d="M1284.781,1017.408
		l0.88-0.15c-0.2,0.49-0.61,1.47-0.82,1.96l-0.49-0.81L1284.781,1017.408z"/>
	<path fill="#FF6600" stroke="#FF6600" stroke-width="0.5" d="M1267.911,1037.448c3.5-5.8,8.96-10.46,15.32-12.86
		c-0.16,0.97-0.48,2.9-0.64,3.86l-0.05,0.14c-5.28,0.99-9.67,4.51-12.54,8.94c-4.3,6.51-6.35,14.11-8.96,21.37
		c0.01-1.32,0.06-2.63,0.14-3.92C1262.641,1048.878,1264.871,1042.928,1267.911,1037.448z"/>
	<path fill="#FFB380" stroke="#FFB380" stroke-width="0.5" d="M1270.001,1037.528c2.87-4.43,7.26-7.95,12.54-8.94
		c-0.43,1.96-0.64,3.94-0.81,5.94l-0.44,0.44c-9.84,7.66-14.6,19.46-20.31,30.11c-0.05-2.07-0.06-4.13,0.06-6.18
		C1263.651,1051.638,1265.701,1044.038,1270.001,1037.528z"/>
	<path fill="#FF6600" stroke="#FF6600" stroke-width="0.5" d="M1260.981,1065.078c5.71-10.65,10.47-22.45,20.31-30.11
		c-0.5,9.49,0.97,18.95,3.22,28.14c0.9,3.4,0.56,6.93,0.51,10.41c-1.34,6.57-4.2,12.82-8.87,17.7c-2.2,2.43-4.6,4.69-7.14,6.77
		C1263.761,1087.868,1260.431,1076.558,1260.981,1065.078z"/>
	<path opacity="0.54" fill="#6A4B3B" stroke="#6A4B3B" stroke-width="0.5" enable-background="new    " d="M1300.651,1042.028
		c0.18-0.49,0.53-1.47,0.7-1.97l0.54,0.79l-0.37,1L1300.651,1042.028z"/>
	<path opacity="0.36" fill="#4D3C34" stroke="#4D3C34" stroke-width="0.5" enable-background="new    " d="M1299.561,1045.928
		c0.22-0.49,0.64-1.46,0.86-1.95l0.47,0.8l-0.44,1L1299.561,1045.928z"/>
	<path opacity="0.44" fill="#5B483E" stroke="#5B483E" stroke-width="0.5" enable-background="new    " d="M1299.101,1047.708
		c0.02-0.05,0.05-0.15,0.07-0.2C1299.151,1047.558,1299.121,1047.658,1299.101,1047.708z"/>
	<path opacity="0.52" fill="#684D3F" stroke="#684D3F" stroke-width="0.5" enable-background="new    " d="M1298.171,1049.718
		c0.02-0.05,0.07-0.15,0.1-0.2C1298.241,1049.568,1298.191,1049.668,1298.171,1049.718z"/>
	<path opacity="0.47" fill="#614A3F" stroke="#614A3F" stroke-width="0.5" enable-background="new    " d="M1297.081,1051.768
		c0.02-0.05,0.08-0.15,0.11-0.21C1297.161,1051.618,1297.101,1051.718,1297.081,1051.768z"/>
	<path opacity="0.32" fill="#463C37" stroke="#463C37" stroke-width="0.5" enable-background="new    " d="M1259.161,1055.728
		c0.05-0.03,0.16-0.07,0.22-0.1C1259.321,1055.658,1259.211,1055.698,1259.161,1055.728z"/>
	<path fill="#993300" stroke="#993300" stroke-width="0.5" d="M1259.381,1055.628l1.8-0.65c-0.08,1.29-0.13,2.6-0.14,3.92
		c-3.31,1.55-6.35,3.56-9.31,5.67c-0.83-0.07-2.5-0.21-3.33-0.28c1.61-2.12,3.37-4.18,5.62-5.65c0.04-0.03,0.11-0.09,0.15-0.11
		c0.73-0.46,2.2-1.37,2.93-1.83c0.05-0.02,0.14-0.07,0.18-0.09l1.88-0.88C1259.211,1055.698,1259.321,1055.658,1259.381,1055.628z"
		/>
	<path opacity="0.38" fill="#51433B" stroke="#51433B" stroke-width="0.5" enable-background="new    " d="M1257.101,1056.698
		c0.05-0.02,0.14-0.07,0.18-0.09C1257.241,1056.628,1257.151,1056.678,1257.101,1056.698z"/>
	<path opacity="0.47" fill="#614A3F" stroke="#614A3F" stroke-width="0.5" enable-background="new    " d="M1254.021,1058.638
		c0.04-0.03,0.11-0.09,0.15-0.11C1254.131,1058.548,1254.061,1058.608,1254.021,1058.638z"/>
	<path fill="#CC9980" stroke="#CC9980" stroke-width="0.5" d="M1251.731,1064.568c2.96-2.11,6-4.12,9.31-5.67
		c-0.12,2.05-0.11,4.11-0.06,6.18c-1.83,0.54-3.62,1.17-5.38,1.87c-0.3-0.43-0.89-1.3-1.19-1.74c-1.69,0.12-3.39,0.24-5.06,0.36
		c-0.55-0.34-1.67-1.02-2.22-1.37l1.27,0.09C1249.231,1064.358,1250.901,1064.498,1251.731,1064.568z"/>
	<path fill="#FF6666" stroke="#FF6666" stroke-width="0.5" d="M974.531,1081.178c49.93-14.25,102.4-19.91,154.18-15.56
		c23.86,2.16,47.72,5.95,70.61,13.14c-2.51,1.58-4.69,3.6-6.99,5.47c-17.8,11.14-32.39,26.66-44.34,43.8
		c-4.92,4.29-7.74,10.31-11.79,15.35c-32.54-6.64-66.05-8.28-99.14-5.89c-7.87-2.91-15.21-8.17-19.23-15.68
		c-4.39-7.18-6.22-15.47-7.69-23.63c-2.96,11.27-6.29,23.17-14.66,31.74c-5.34,5.47-12.51,8.32-19.4,11.24
		c2.07,0.79,4.16,1.57,6.27,2.33c-0.13,0.37-0.38,1.1-0.5,1.46c-56.43,11.25-110.28,33.94-159.03,64.31
		c-29.48,17.92-55.01,41.49-78.81,66.28c-28.71,30.04-55.13,62.15-83.25,92.72c-21.41,23.23-43.76,45.77-68.68,65.26
		c-30.13,23.1-64.78,39.48-100.05,53.11c-40.44,15.29-81.96,27.49-122.81,41.58c-11.5-7.39-15.15-21.54-17.9-34.07
		c-2.4,9.39-5.13,18.97-10.75,27.01c-5.7,7.94-14.71,12.74-23.92,15.43c4.74,1.62,9.64,3.04,13.78,5.99
		c-14.13,6.28-28.22,12.77-41.27,21.11c-28.57,18.1-52.63,43.39-68.77,73.15c-5.83,10.47-10.44,21.56-14.57,32.8
		c-5.81-45.66,0.04-93.42,20.18-135.07c14.89-31.03,37.82-57.89,65.16-78.65c15.17-11.65,31.66-21.67,49.36-28.97
		c37.94-15.72,78.2-24.51,117.91-34.41c45.25-11.12,90.75-22.76,133.19-42.37c18.78-8.73,36.81-19.18,53.24-31.81
		c28.17-20.74,53.43-45.05,78.64-69.19c5.66-3.95,9.91-9.51,14.99-14.13c10.73-10.73,21.45-21.46,32.04-32.33
		c29.44-28.52,60.34-56.22,96.11-76.62C900.771,1107.148,936.981,1091.848,974.531,1081.178z"/>
	<path fill="#FFFFFF" stroke="#FFFFFF" stroke-width="0.5" d="M1220.061,1069.228c8.51-3.42,17.75-6.8,27.07-5.03
		c0.55,0.35,1.67,1.03,2.22,1.37c1.47,0.9,3.63,3.36,1.21,4.5c-5.45,3.31-11.91,4.26-17.92,6.15c-10.54,3.26-21.66,5.7-30.88,12.05
		c-11.78,8.46-20.71,20.04-30.38,30.67c-1.36,1.48-3.07,2.56-4.79,3.57c0.67-8.04,4.65-15.47,9.96-21.42
		c7.25-8.32,16.76-14.11,25.3-20.97C1207.831,1076.348,1213.921,1072.758,1220.061,1069.228z"/>
	<path fill="#FFCC99" stroke="#FFCC99" stroke-width="0.5" d="M1249.351,1065.568c1.67-0.12,3.37-0.24,5.06-0.36
		c0.3,0.44,0.89,1.31,1.19,1.74c2.26,5.31-1.23,10.75-4.57,14.7c-6.56,7.32-12.82,14.91-18.89,22.65c7.22,7.58,15,14.58,22.84,21.5
		c1.72,1.55,3.53,3.02,5.38,4.44c14.14,11.36,28.98,22.06,45.3,30.1c10.06,5.09,20.91,8.33,31.17,12.95
		c15.7,6.9,30.98,15.25,43.95,26.59c8.04,7.16,15.17,15.63,19.42,25.62c4.13,9.04,5.06,19.66,1.72,29.1
		c-3.69,10.74-11.91,19.23-20.92,25.81c-6.47,4.43-12.94,9.1-20.45,11.62c-6.05,2.05-12.34,3.65-18.73,4
		c-3.17-0.02-6.29,0.43-9.4,0.88c-3.94,0.14-7.96,0.35-11.86-0.07c-5.23-2.76-11.47-1.29-17.1-0.91
		c-7.04,0.03-13.97-1.57-20.93-2.42c-15.41-2.37-30.6-5.91-45.71-9.7c-7.83,19.4-14.88,39.17-20.01,59.46
		c-3.01,12.71-5.87,25.83-4.29,38.95c0.46,4.02,1.89,8.21,5.11,10.86c3.49,2.59,7.97,3.29,12.21,3.55
		c-5.45,1.14-12.12,0.03-16.4,4.24c4.18,5.08,11.03,6.31,17.19,7.24c12.36,1.49,24.94,0,36.97-3.01
		c12.17-3.01,24.53-5.45,36.38-9.62c2.66-1.15,5.83-2.05,7.5-4.6c0.66-2.97-2.11-5.08-4.02-6.83c6.07,0.11,12.75,1.49,16.69,6.54
		c4.89,6.55,8.73,13.8,12.45,21.06c0.78-0.1,2.33-0.3,3.1-0.4c-0.64,0.22-1.94,0.66-2.58,0.88c8.98,19.44,14.47,40.47,16,61.83
		c1.52,22.18-0.87,44.96-9.18,65.71c-3.59,8.39-7.75,16.97-14.8,23.03c-16.06,14.26-33.44,27-51.57,38.48
		c-11.05,6.88-22.4,13.35-34.4,18.42c-8.76,3.57-18,6.91-27.6,6.47c-4.3-0.12-8.48-1.96-11.39-5.13l0.16-0.25
		c3.74-5.73,5.62-12.4,8.2-18.68c2.49-7.24,5.09-14.47,6.83-21.93c0.45-3.16,1.45-7.08-0.9-9.71c-2.34-0.95-4.62,0.48-6.54,1.64
		c12.46-15.8,31.29-24.36,48.1-34.6c7.34-4.77,15.85-8.26,21.46-15.25c5.45-6.74,7.66-15.48,8.12-23.99
		c-0.31-10.99-3.43-22.67-11.68-30.41c-3.84-3.63-9-6.07-14.34-5.95c-11.41,0.17-22.56,2.96-33.55,5.72
		c-2.47,0.01-4.95,0.13-7.31,0.88c-42.15,11.19-82.91,27.4-121.78,47.11c-39.7,20.01-76.76,46.25-105.95,80.02
		c-1.6,1.83-3.39,3.68-3.95,6.14l-0.13,0.41c-0.73,0.44-1.46,0.9-2.18,1.38c6.05,21.56,3.32,44.92-4.98,65.52
		c-7.83,19.92-20.74,37.47-35.59,52.73c-10.89,10.85-22.71,20.76-35.24,29.65c-3.6,2.64-7.8,5.78-8.02,10.68
		c0.18,4.36,3.7,7.42,6.92,9.88c8.35,6.07,18.19,9.46,27.67,13.29c18.51,6.61,37.23,12.62,55.63,19.54
		c11.21,4.46,22.41,9.49,32.01,16.92c4.75,3.95,9.45,8.95,10.3,15.35c0.58,5.75-3.12,10.93-7.3,14.49
		c-10.5,8.49-23.63,12.71-36.48,16.17c-2.32,0.54-4.65,1.49-7.06,1.11c-11.59-1.39-22.8-4.81-33.97-8.05
		c-30.41-9.44-60.45-20.24-89.56-33.15c-9.87-4.59-19.82-9.14-28.92-15.14c-3.14-2.45-6.96-4.57-8.54-8.42
		c-6.93-17.28-5.66-36.68-0.56-54.27c6.06-21.57,16.96-41.28,25.71-61.79c3.7-9.17,7.45-18.74,7.17-28.79
		c-0.14-9.02-5.99-17.83-14.55-20.91c-5.25-3.57-13.02-4.93-18.27-0.67c-5.38,4.49-7.99,11.23-10.58,17.54
		c-6.51,16.92-12.21,34.22-20.52,50.39c-4.24,8.74-9.56,16.88-14.55,25.2c0.91-0.5,1.82-1,2.73-1.49
		c-6.71,8.34-13.73,16.42-20.91,24.35c-4.52,4.92-9.17,9.74-13.31,15c-14.96,18.5-25.52,40.19-33.2,62.62
		c-9.31,26.46-14.15,54.18-22.27,80.98c-3.52,10.92-7.59,22.03-15.02,30.96c-6.07,7.47-15.23,12.53-24.92,12.99
		c-9.19,1.04-19.74-0.44-26.17-7.75c-6.94-7.96-7.88-19.21-7.65-29.31c0.96-19.08,5.97-37.67,11.35-55.91
		c12.66-40.89,28.95-80.51,43.87-120.59c1.3-3.3,2.23-6.82,4.34-9.73c5.06-7.27,12.2-12.67,18.82-18.41
		c10.65-8.63,21.73-16.75,31.96-25.88c4.35-4.12,9.05-8.45,10.81-14.37c4.23-11.76,5.38-24.56,3.08-36.85
		c-0.73-4.48-1.84-8.88-2.58-13.35c22.1-13.24,48.31-21.17,74.2-17.91c-5.54-22.46-9.49-45.83-6.43-68.97
		c1.79-13.95,4.82-27.83,9.92-40.96c8.4-16.64,19.33-31.97,31.85-45.76c12.49-13.77,27.73-24.9,44.32-33.23
		c5.4-0.85,10.4-3.14,15.56-4.85c21.29-7.27,42.71-14.2,63.7-22.31c21.99-8.79,44.56-18.4,61.67-35.28
		c9.99-10.85,17.1-23.95,24.34-36.7c28.95-53.54,46.24-112.45,74.75-166.21c4.19-8.15,9.4-15.72,13.72-23.79
		c11.95-17.14,26.54-32.66,44.34-43.8c3.16-1.39,6.35-2.73,9.52-4.11c-8.54,6.86-18.05,12.65-25.3,20.97
		c-5.31,5.95-9.29,13.38-9.96,21.42c1.72-1.01,3.43-2.09,4.79-3.57c9.67-10.63,18.6-22.21,30.38-30.67
		c9.22-6.35,20.34-8.79,30.88-12.05c6.01-1.89,12.47-2.84,17.92-6.15C1252.981,1068.928,1250.821,1066.468,1249.351,1065.568
		 M1242.381,1160.848c-3.37,1.78-4.99,5.66-5.21,9.31c-0.53,7.55,1.96,14.84,4.24,21.92c1.28,5.76,4.57,10.99,9.14,14.72
		c1.77,4.58,6.03,7.66,9.89,10.46c8.45,5.5,19.59,2.46,27.29-2.96c11.11-7.81,15.69-23.38,10.53-35.95
		c-3.63-9.65-12.51-16.92-22.56-18.95c-5.63-0.97-11.37-0.59-17.05-0.85C1253.201,1158.578,1247.311,1158.108,1242.381,1160.848
		 M1387.251,1224.758c-2.64,4.05-1.11,9.18,0.28,13.4c1.71,4.42,0.95,9.22,1.11,13.85c0.45,0.26,1.37,0.78,1.82,1.04
		c0.74-0.88,1.81-1.65,1.74-2.92c0.34-4.25,0.59-8.53,1.93-12.61c1.24-4.36,1.9-9.85-1.37-13.5
		C1391.241,1222.208,1388.301,1222.798,1387.251,1224.758 M916.271,1413.758c-15.19,5.51-29.62,12.99-43.2,21.72
		c-13.93,9.09-25.47,21.49-34.74,35.23c-11,16.71-19.43,35.46-22.5,55.34c-0.88,7.33-1.39,15.61,2.75,22.09
		c2.66-4.11,3.18-9.08,4.53-13.68c5.19-20.65,11.79-41.71,25.3-58.56c7.88-10.31,19.18-17.16,30.23-23.59
		c20.54-11.53,43.62-18.28,67.02-20.57c7.96-0.94,15.99-1.3,23.92-2.48c3.01-0.73,7.54-1.32,8.13-5.04
		c0.03-4.19-2.49-7.97-5.31-10.86c-6.01-5.76-14.81-6.9-22.77-6.8C938.201,1407.028,927.011,1409.938,916.271,1413.758z"/>
	<path fill="#993300" stroke="#993300" stroke-width="0.5" d="M1255.601,1066.948c1.76-0.7,3.55-1.33,5.38-1.87
		c-0.55,11.48,2.78,22.79,8.03,32.91c-1.39,10.47-5.02,21.45-14.03,27.81c-7.84-6.92-15.62-13.92-22.84-21.5
		c6.07-7.74,12.33-15.33,18.89-22.65C1254.371,1077.698,1257.861,1072.258,1255.601,1066.948z"/>
	<path fill="#FF9966" stroke="#FF9966" stroke-width="0.5" d="M1199.321,1078.758c6.79-3.4,13.31-7.65,20.74-9.53
		c-6.14,3.53-12.23,7.12-18.21,10.89c-3.17,1.38-6.36,2.72-9.52,4.11C1194.631,1082.358,1196.811,1080.338,1199.321,1078.758z"/>
	<path fill="#FF9966" stroke="#FF9966" stroke-width="0.5" d="M1269.011,1097.988c2.54-2.08,4.94-4.34,7.14-6.77
		c0.34,1.29-0.51,2.12-1.34,2.9c4.18,0.77,8.57,2.14,11.66,5.21c0.75,3.73-2.32,6.7-4.37,9.44c-6.71,7.68-14.38,14.44-21.74,21.47
		c-1.85-1.42-3.66-2.89-5.38-4.44C1263.991,1119.438,1267.621,1108.458,1269.011,1097.988z"/>
	<path fill="#FF9966" stroke="#FF9966" stroke-width="0.5" d="M1010.141,1098.178c1.47,8.16,3.3,16.45,7.69,23.63
		c4.02,7.51,11.36,12.77,19.23,15.68c2.55,1.18,5.06,2.43,7.65,3.56c-9.25,2.58-18.62,6.7-24.53,14.59
		c-6.18,8-7.66,18.26-10.1,27.79c-2.57-11.21-5.5-23.39-14.16-31.57c-3.98-3.34-8.48-7.47-14.07-6.91c0.12-0.36,0.37-1.09,0.5-1.46
		c-2.11-0.76-4.2-1.54-6.27-2.33c6.89-2.92,14.06-5.77,19.4-11.24C1003.851,1121.348,1007.181,1109.448,1010.141,1098.178z"/>
	<path fill="#FF9966" stroke="#FF9966" stroke-width="0.5" d="M1136.201,1143.378c4.05-5.04,6.87-11.06,11.79-15.35
		c-4.32,8.07-9.53,15.64-13.72,23.79c-28.51,53.76-45.8,112.67-74.75,166.21c-7.24,12.75-14.35,25.85-24.34,36.7
		c-17.11,16.88-39.68,26.49-61.67,35.28c-20.99,8.11-42.41,15.04-63.7,22.31c-5.16,1.71-10.16,4-15.56,4.85
		c12.3-6.89,25.42-12.13,38.1-18.27c3.8-1.92,7.95-3.25,11.29-5.98c-1.37-0.25-2.74-0.45-4.1-0.61c5.46,0.93,10.24-2.23,15.09-4.16
		c15.53-6.45,30.81-13.73,44.74-23.22c9.16-6.34,17.71-13.83,24.03-23.06c17.98-25.76,32.82-53.5,47.55-81.18
		C1091.741,1221.078,1111.441,1180.728,1136.201,1143.378z"/>
	<path fill="#FFCC66" stroke="#FFCC66" stroke-width="0.5" d="M1037.061,1137.488c33.09-2.39,66.6-0.75,99.14,5.89
		c-24.76,37.35-44.46,77.7-65.25,117.31c-5.38-3.47-11.67-5.08-17.67-7.11c-39.12-11.9-81.58-9.16-120.3,2.92
		c-35.25,10.81-67.86,28.83-97.89,50.02c-16.99,12.17-33.05,25.57-48.99,39.07c-57.5,48.21-114.86,96.61-172.75,144.35
		c-27.64,22.42-54.28,46.17-83.71,66.28c-63.95,44.1-134.35,77.42-202.37,114.54c-17.22,9.57-34.45,19.2-50.9,30.09
		c-12.13,7.54-23.52,16.29-33.9,26.13c-21.16,20.23-37.18,45.46-47.76,72.7c-5.65-43.42-2.89-88.39,11.11-130.05
		c4.13-11.24,8.74-22.33,14.57-32.8c16.14-29.76,40.2-55.05,68.77-73.15c13.05-8.34,27.14-14.83,41.27-21.11
		c5.28,2.7,9.64,6.96,12.64,12.08c4.43,7.22,6.35,15.57,8.28,23.72c2.55-7.91,3.48-16.43,7.89-23.65
		c5.37-10.01,16.2-15.14,26.62-18.22c-5.73-2.38-11.62-4.56-16.64-8.29c40.85-14.09,82.37-26.29,122.81-41.58
		c35.27-13.63,69.92-30.01,100.05-53.11c24.92-19.49,47.27-42.03,68.68-65.26c28.12-30.57,54.54-62.68,83.25-92.72
		c23.8-24.79,49.33-48.36,78.81-66.28c48.75-30.37,102.6-53.06,159.03-64.31c5.59-0.56,10.09,3.57,14.07,6.91
		c8.66,8.18,11.59,20.36,14.16,31.57c2.44-9.53,3.92-19.79,10.1-27.79c5.91-7.89,15.28-12.01,24.53-14.59
		C1042.121,1139.918,1039.611,1138.668,1037.061,1137.488z"/>
	<path fill="#FFFFFF" stroke="#FFFFFF" stroke-width="0.5" d="M1242.381,1160.848c4.93-2.74,10.82-2.27,16.27-2.3
		c5.68,0.26,11.42-0.12,17.05,0.85c10.05,2.03,18.93,9.3,22.56,18.95c5.16,12.57,0.58,28.14-10.53,35.95
		c-7.7,5.42-18.84,8.46-27.29,2.96c-3.86-2.8-8.12-5.88-9.89-10.46c7.22,5.89,17.67,7.44,26.25,3.71
		c11.7-4.66,18.56-18.57,14.97-30.68c-3.22-12.85-17.32-21.63-30.26-18.58c-13.7,2.48-23.27,17.29-20.1,30.83
		c-2.28-7.08-4.77-14.37-4.24-21.92C1237.391,1166.508,1239.011,1162.628,1242.381,1160.848z"/>
	<path fill="#336600" stroke="#336600" stroke-width="0.5" d="M1241.411,1192.078c-3.17-13.54,6.4-28.35,20.1-30.83
		c12.94-3.05,27.04,5.73,30.26,18.58c3.59,12.11-3.27,26.02-14.97,30.68c-8.58,3.73-19.03,2.18-26.25-3.71
		C1245.981,1203.068,1242.691,1197.838,1241.411,1192.078 M1255.351,1163.728c-6.76,2.73-8.99,12.21-4.19,17.71
		c-2.23,6.07,1.53,13.88,7.62,15.99c-2.83,1.39-5.12,4.37-4.37,7.68c0.68,4.35,6.08,6.93,9.88,4.63c3.76-1.93,4.5-7.34,1.76-10.45
		c4.51-0.96,9.02-3.18,11.28-7.4c4.21-6.8,1.22-16.44-5.86-19.98C1270.061,1164.948,1261.841,1160.458,1255.351,1163.728z"/>
	<path fill="#FFFFFF" stroke="#FFFFFF" stroke-width="0.5" d="M1255.351,1163.728c6.49-3.27,14.71,1.22,16.12,8.18
		c0.88,5.22-1.98,10.85-6.95,12.83c-4.59,2.03-10.19,0.51-13.36-3.3C1246.361,1175.938,1248.591,1166.458,1255.351,1163.728z"/>
	<path stroke="#000000" stroke-width="0.5" d="M1271.471,1171.908c7.08,3.54,10.07,13.18,5.86,19.98c-2.26,4.22-6.77,6.44-11.28,7.4
		c-2.02-1.77-4.68-2.29-7.27-1.86c-6.09-2.11-9.85-9.92-7.62-15.99c3.17,3.81,8.77,5.33,13.36,3.3
		C1269.491,1182.758,1272.351,1177.128,1271.471,1171.908z"/>
	<path fill="#FFFFFF" stroke="#FFFFFF" stroke-width="0.5" d="M1258.781,1197.428c2.59-0.43,5.25,0.09,7.27,1.86
		c2.74,3.11,2,8.52-1.76,10.45c-3.8,2.3-9.2-0.28-9.88-4.63C1253.661,1201.798,1255.951,1198.818,1258.781,1197.428z"/>
	<path fill="#CC9980" stroke="#CC9980" stroke-width="0.5" d="M723.501,1249.158c15.45-15.7,31.13-31.21,47.03-46.46
		c-10.59,10.87-21.31,21.6-32.04,32.33C733.411,1239.648,729.161,1245.208,723.501,1249.158z"/>
	<path fill="#FF9966" stroke="#FF9966" stroke-width="0.5" d="M1387.251,1224.758c1.05-1.96,3.99-2.55,5.51-0.74
		c3.27,3.65,2.61,9.14,1.37,13.5c-1.34,4.08-1.59,8.36-1.93,12.61c0.07,1.27-1,2.04-1.74,2.92c-0.45-0.26-1.37-0.78-1.82-1.04
		c-0.16-4.63,0.6-9.43-1.11-13.85C1386.141,1233.938,1384.611,1228.808,1387.251,1224.758z"/>
	<path fill="#FFFF66" stroke="#FFFF66" stroke-width="0.5" d="M932.981,1256.498c38.72-12.08,81.18-14.82,120.3-2.92
		c6,2.03,12.29,3.64,17.67,7.11c-14.73,27.68-29.57,55.42-47.55,81.18c-6.32,9.23-14.87,16.72-24.03,23.06
		c-13.93,9.49-29.21,16.77-44.74,23.22c-4.85,1.93-9.63,5.09-15.09,4.16c-53.06-6.58-108.87,3.49-154.59,31.8
		c-10.18-7.88-13.3-21.07-15.8-33.02c-2.08,9.22-4.8,18.52-10.06,26.49c-4.9,7.31-12.53,12.46-20.82,15.19
		c-0.81,0.52-2.6,0.44-2.39,1.79c7.15,2.5,14.4,5.47,19.81,10.99c-11.82,10.06-22.31,21.58-31.98,33.69
		c-46.36,57.21-98.11,110.21-155.69,156.21c-16.31,13.17-33.12,25.72-50.17,37.93c-13.45,9.54-27.08,19.04-42.13,25.91
		c-20.7,10.08-43.13,15.66-65.25,21.64c-17.99,4.66-35.97,9.43-53.55,15.48c-19.41,6.4-38.22,14.49-56.6,23.41
		c-14.99,7.43-28.4,18.03-39,30.99c-19.39,23.61-29,53.77-32.59,83.76c-11.69,13.68-22.1,28.6-29.8,44.91
		c-8.02,17.38-13.49,36.53-11.77,55.83c-5.06-19.66-7.35-39.97-8.55-60.21c-2.07-39,2.3-78.73,16.1-115.42
		c10.58-27.24,26.6-52.47,47.76-72.7c10.38-9.84,21.77-18.59,33.9-26.13c16.45-10.89,33.68-20.52,50.9-30.09
		c68.02-37.12,138.42-70.44,202.37-114.54c29.43-20.11,56.07-43.86,83.71-66.28c57.89-47.74,115.25-96.14,172.75-144.35
		c15.94-13.5,32-26.9,48.99-39.07C865.121,1285.328,897.731,1267.308,932.981,1256.498z"/>
	<path fill="#FF9966" stroke="#FF9966" stroke-width="0.5" d="M1303.461,1295.928c5.63-0.38,11.87-1.85,17.1,0.91
		C1314.861,1296.958,1309.051,1297.098,1303.461,1295.928z"/>
	<path opacity="0.55" fill="#8B6857" stroke="#8B6857" stroke-width="0.5" enable-background="new    " d="M1332.421,1296.908
		c3.11-0.45,6.23-0.9,9.4-0.88C1338.911,1297.518,1335.551,1297.018,1332.421,1296.908z"/>
	<path fill="#FF9966" stroke="#FF9966" stroke-width="0.5" d="M1377.561,1340.878c5.6-1.22,11.3-2.24,17.06-2.26
		c1.65,0.09,3.76,0.04,4.87,1.56c0.83,9.59,2.43,19.39,0.1,28.91c-1.91,8.69-6.96,16.59-13.92,22.13
		c-6.96,5.75-15.57,8.84-23.84,12.18c-7.31,2.77-14.63,5.61-22.13,7.85c-0.77,0.1-2.32,0.3-3.1,0.4
		c-3.72-7.26-7.56-14.51-12.45-21.06c-3.94-5.05-10.62-6.43-16.69-6.54c-8.72-1.36-17.41,0.75-25.87,2.65
		c-17.09,4.04-34.13,8.91-51.75,9.93c-4.24-0.26-8.72-0.96-12.21-3.55c-3.22-2.65-4.65-6.84-5.11-10.86
		c41.46-8.46,82.08-20.42,122.97-31.15C1349.441,1347.388,1363.391,1343.658,1377.561,1340.878z"/>
	<path fill="#FFFFFF" stroke="#FFFFFF" stroke-width="0.5" d="M1281.591,1386.698c8.46-1.9,17.15-4.01,25.87-2.65
		c1.91,1.75,4.68,3.86,4.02,6.83c-1.67,2.55-4.84,3.45-7.5,4.6c-11.85,4.17-24.21,6.61-36.38,9.62c-12.03,3.01-24.61,4.5-36.97,3.01
		c-6.16-0.93-13.01-2.16-17.19-7.24c4.28-4.21,10.95-3.1,16.4-4.24C1247.461,1395.608,1264.501,1390.738,1281.591,1386.698z"/>
	<path fill="#99FF66" stroke="#99FF66" stroke-width="0.5" d="M784.951,1424.108c45.72-28.31,101.53-38.38,154.59-31.8
		c1.36,0.16,2.73,0.36,4.1,0.61c-3.34,2.73-7.49,4.06-11.29,5.98c-12.68,6.14-25.8,11.38-38.1,18.27
		c-16.59,8.33-31.83,19.46-44.32,33.23c-12.52,13.79-23.45,29.12-31.85,45.76c-33.47,2.84-65.27,17.99-90.48,39.89
		c-14.51,12.7-26.83,27.83-36.84,44.29c-17.9,29.34-30.48,61.51-47.74,91.2c-15.82,27.81-35.59,53.26-57.91,76.16
		c-13.13,13.82-26.61,27.4-41.61,39.23c-6.59-4.57-10.65-11.8-13.36-19.17c-1.71-4.52-2.27-9.37-3.91-13.91
		c-2.56,9.56-5.36,19.4-11.43,27.41c-5.7,7.37-14.27,11.88-23.11,14.34c7.77,2.82,15.84,5.81,21.59,12.03
		c-15.03,8.38-31.05,15.04-47.78,19.14c-15.03,3.52-30.42,5.59-45.86,5.77c-22.04-0.22-44.16,0.32-66,3.54
		c-31.41,4.56-63.13,13.89-88.69,33.37c-12.96,10.14-24.7,23.02-30.01,38.86c0.77-0.31,2.31-0.94,3.08-1.26
		c-3.73,7.84-7.46,15.83-8.94,24.46c-2.97-18.8-2.41-38.07-0.35-56.94c3.59-29.99,13.2-60.15,32.59-83.76
		c10.6-12.96,24.01-23.56,39-30.99c18.38-8.92,37.19-17.01,56.6-23.41c17.58-6.05,35.56-10.82,53.55-15.48
		c22.12-5.98,44.55-11.56,65.25-21.64c15.05-6.87,28.68-16.37,42.13-25.91c17.05-12.21,33.86-24.76,50.17-37.93
		c57.58-46,109.33-99,155.69-156.21c9.67-12.11,20.16-23.63,31.98-33.69c8.14,8.13,11.17,19.77,13.47,30.69
		c2.32-7.25,3.18-14.99,6.74-21.81c4.14-9.25,13.1-15.54,22.58-18.43c1.79-0.63,3.55-1.38,5.29-2.16
		C797.051,1431.588,790.431,1428.678,784.951,1424.108z"/>
	<path fill="#CCFF66" stroke="#CCFF66" stroke-width="0.5" d="M769.151,1391.088c2.5,11.95,5.62,25.14,15.8,33.02
		c5.48,4.57,12.1,7.48,18.82,9.73c-1.74,0.78-3.5,1.53-5.29,2.16c-9.48,2.89-18.44,9.18-22.58,18.43
		c-3.56,6.82-4.42,14.56-6.74,21.81c-2.3-10.92-5.33-22.56-13.47-30.69c-5.41-5.52-12.66-8.49-19.81-10.99
		c-0.21-1.35,1.58-1.27,2.39-1.79c8.29-2.73,15.92-7.88,20.82-15.19C764.351,1409.608,767.071,1400.308,769.151,1391.088z"/>
	<path fill="#FFFFFF" stroke="#FFFFFF" stroke-width="0.5" d="M916.271,1413.758c10.74-3.82,21.93-6.73,33.36-7.2
		c7.96-0.1,16.76,1.04,22.77,6.8c2.82,2.89,5.34,6.67,5.31,10.86c-0.59,3.72-5.12,4.31-8.13,5.04c-7.93,1.18-15.96,1.54-23.92,2.48
		c-23.4,2.29-46.48,9.04-67.02,20.57c-11.05,6.43-22.35,13.28-30.23,23.59c-13.51,16.85-20.11,37.91-25.3,58.56
		c-1.35,4.6-1.87,9.57-4.53,13.68c-4.14-6.48-3.63-14.76-2.75-22.09c3.07-19.88,11.5-38.63,22.5-55.34
		c9.27-13.74,20.81-26.14,34.74-35.23C886.651,1426.748,901.081,1419.268,916.271,1413.758z"/>
	<path fill="#FF9966" stroke="#FF9966" stroke-width="0.5" d="M1222.731,1468.408c2.36-0.75,4.84-0.87,7.31-0.88
		c-37.07,11.59-71.76,29.44-105.57,48.32c-33.49,18.99-66.01,39.64-97.83,61.3c-12.06,7.88-23.58,16.58-35.59,24.53
		c0.56-2.46,2.35-4.31,3.95-6.14c29.19-33.77,66.25-60.01,105.95-80.02C1139.821,1495.808,1180.581,1479.598,1222.731,1468.408z"/>
	<path fill="#FF9966" stroke="#FF9966" stroke-width="0.5" d="M340.571,1521.148c5.62-8.04,8.35-17.62,10.75-27.01
		c2.75,12.53,6.4,26.68,17.9,34.07c5.02,3.73,10.91,5.91,16.64,8.29c-10.42,3.08-21.25,8.21-26.62,18.22
		c-4.41,7.22-5.34,15.74-7.89,23.65c-1.93-8.15-3.85-16.5-8.28-23.72c-3-5.12-7.36-9.38-12.64-12.08
		c-4.14-2.95-9.04-4.37-13.78-5.99C325.861,1533.888,334.871,1529.088,340.571,1521.148z"/>
	<path fill="#99FFFF" stroke="#99FFFF" stroke-width="0.5" d="M727.601,1536.048c25.21-21.9,57.01-37.05,90.48-39.89
		c-5.1,13.13-8.13,27.01-9.92,40.96c-3.06,23.14,0.89,46.51,6.43,68.97c-25.89-3.26-52.1,4.67-74.2,17.91
		c-31.56,19.25-56.29,48.43-73.29,81.01c-19.68,37.15-29.61,78.47-48.48,115.98c-9.64,19.25-22.35,37.17-38.54,51.47
		c-27.33,24.19-60.37,42.91-96.55,49.52c-24.76,4.64-50.48,3.41-74.86-2.76c-9.19-2.23-18.12-5.37-27.02-8.53
		c-24.54-8.36-50.07-14.32-76.03-15.53c-20.65-0.87-41.79,1.25-61.15,8.83c-2.25,0.8-4.34,1.95-6.45,3.06
		c-0.77,0.32-2.31,0.95-3.08,1.26c5.31-15.84,17.05-28.72,30.01-38.86c25.56-19.48,57.28-28.81,88.69-33.37
		c21.84-3.22,43.96-3.76,66-3.54c15.44-0.18,30.83-2.25,45.86-5.77c16.73-4.1,32.75-10.76,47.78-19.14
		c8.13,8.4,11.12,20.27,13.12,31.44c1.78-8.16,3.23-16.53,7.16-24c3.03-6.32,8.52-11.11,14.61-14.39c4.03-2.29,8.59-3.31,12.83-5.08
		c-6.1-2.3-12.21-4.79-17.5-8.67c15-11.83,28.48-25.41,41.61-39.23c22.32-22.9,42.09-48.35,57.91-76.16
		c17.26-29.69,29.84-61.86,47.74-91.2C700.771,1563.878,713.091,1548.748,727.601,1536.048z"/>
	<path fill="#FF9966" stroke="#FF9966" stroke-width="0.5" d="M1211.931,1572.008c1.92-1.16,4.2-2.59,6.54-1.64
		c2.35,2.63,1.35,6.55,0.9,9.71c-1.74,7.46-4.34,14.69-6.83,21.93c-2.58,6.28-4.46,12.95-8.2,18.68
		c-3.95-4.92-3.99-11.54-3.83-17.52C1200.771,1591.918,1204.611,1580.628,1211.931,1572.008z"/>
	<path fill="#FF9966" stroke="#FF9966" stroke-width="0.5" d="M825.111,1637.608c5.25-4.26,13.02-2.9,18.27,0.67
		c-6.12,4.34-9.14,11.5-12.92,17.74c-14.13,25.62-29.62,50.62-48.27,73.23c-0.91,0.49-1.82,0.99-2.73,1.49
		c4.99-8.32,10.31-16.46,14.55-25.2c8.31-16.17,14.01-33.47,20.52-50.39C817.121,1648.838,819.731,1642.098,825.111,1637.608z"/>
	<path fill="#66FF99" stroke="#66FF99" stroke-width="0.5" d="M526.231,1753.848c1.64,4.54,2.2,9.39,3.91,13.91
		c2.71,7.37,6.77,14.6,13.36,19.17c5.29,3.88,11.4,6.37,17.5,8.67c-4.24,1.77-8.8,2.79-12.83,5.08
		c-6.09,3.28-11.58,8.07-14.61,14.39c-3.93,7.47-5.38,15.84-7.16,24c-2-11.17-4.99-23.04-13.12-31.44
		c-5.75-6.22-13.82-9.21-21.59-12.03c8.84-2.46,17.41-6.97,23.11-14.34C520.871,1773.248,523.671,1763.408,526.231,1753.848z"/>
</g>
</svg>
